# Blender v2.82 (sub 7) OBJ File: 'cachalotbalaine_backup4.blend'
# www.blender.org
mtllib baleine_aile2.mtl
v -0.823962 0.178329 -0.677640
v -0.582721 -1.008264 -0.153920
v 0.954991 0.490607 -0.789552
v 1.196233 -0.695986 -0.265831
v 2.295712 -0.803379 -1.825423
v 0.962049 -1.037491 -1.741524
v 0.874015 -0.665657 -2.103343
v 2.207679 -0.431545 -2.187242
v 0.368929 -1.025749 -0.072760
v -0.993211 -0.531988 -0.537521
v 0.046583 0.564697 -0.758824
v 1.434730 -0.105786 -0.690259
v 1.752829 -0.972780 -1.842533
v 0.894609 -0.902274 -2.006199
v 1.651190 -0.544566 -2.263316
v 2.509947 -0.618717 -2.107818
v 0.209059 -1.053832 -1.128376
v 1.839038 -0.767704 -1.230916
v 0.060784 -0.386013 -1.621877
v 1.690763 -0.099886 -1.724417
v 1.067385 -1.025690 -1.083554
v 1.964876 -0.815222 -2.256773
v -0.156077 -0.792861 -1.401838
v 0.865581 -0.115462 -1.751534
v 2.096282 -0.397481 -1.543531
v -0.807445 0.468301 0.222063
v -0.595236 -0.589032 0.644962
v 0.657094 0.725387 0.129931
v 0.869302 -0.331947 0.552830
v 0.184724 -0.618552 0.729597
v -0.952119 -0.156515 0.338116
v -0.102005 0.814108 0.169422
v 1.057762 0.196300 0.211677
v 0.835319 -0.898428 -0.130713
v -0.140458 -1.069716 -0.069328
v -0.862758 -0.823993 -0.344096
v -0.996192 -0.168466 -0.635979
v -0.443866 0.425641 -0.719671
v 0.531911 0.596930 -0.781056
v 1.405525 -0.425817 -0.486790
v 1.272091 0.229709 -0.778673
v 2.115507 -0.885904 -1.849870
v 1.313258 -1.026732 -1.799402
v 0.928390 -0.994796 -1.873546
v 0.876925 -0.778363 -2.087703
v 1.215983 -0.616838 -2.201923
v 2.018232 -0.476011 -2.252391
v 2.454927 -0.726827 -1.969579
v 2.403462 -0.510394 -2.183735
v -0.240612 -1.059700 -0.673550
v 0.644819 -1.048974 -1.503865
v 2.146447 -0.785377 -1.598329
v 1.480541 -0.757567 -0.781824
v -0.438804 -0.116779 -1.192899
v 0.533821 -0.571640 -1.936344
v 1.282349 0.185353 -1.301174
v 2.035449 -0.308043 -2.030809
v 0.670927 -1.056150 -0.605386
v 0.607414 -1.074878 -1.075883
v 1.450748 -1.002292 -1.500501
v 1.497018 -0.918717 -1.131847
v 2.347180 -0.723348 -2.235879
v 1.925924 -0.910406 -2.096302
v 1.452593 -0.880385 -2.179602
v 1.873781 -0.692871 -2.318158
v -0.638662 -0.684088 -1.005915
v -0.127951 -0.588963 -1.524600
v 0.357701 -0.869361 -1.740470
v -0.046530 -0.955466 -1.253016
v 0.403602 0.218095 -1.299153
v 1.308301 -0.067945 -1.757719
v 1.302441 -0.363530 -2.075583
v 0.418697 -0.224106 -1.701755
v 1.730016 -0.268289 -1.154925
v 2.048643 -0.587678 -1.384820
v 2.397666 -0.511264 -1.868801
v 1.967222 -0.221176 -1.656404
v 0.507930 -0.415343 0.705178
v -0.200932 -0.539777 0.749771
v -0.731802 -0.336468 0.544262
v -0.835314 0.178571 0.335978
v -0.437726 0.642267 0.284058
v 0.271136 0.766701 0.239465
v 0.919492 -0.046600 0.440381
v 0.815979 0.468440 0.232098
v -1.107129 -0.333495 -0.018894
v -0.952823 0.412569 -0.138409
v 0.235652 -0.864925 0.455412
v -0.701378 -0.837943 0.369148
v 1.271435 0.084039 -0.168526
v 1.045174 -0.531352 0.259275
v -0.100032 0.810397 -0.205818
v 0.793729 0.719158 -0.248282
v 1.124129 -0.937455 -0.660864
v 0.183210 -1.102624 -0.601671
v 1.013823 -1.053310 -1.480747
v 1.845555 -0.907307 -1.533069
v 2.245522 -0.608522 -2.299153
v 2.296414 -0.821035 -2.083165
v 1.440318 -0.971314 -2.029309
v 1.389427 -0.758802 -2.245297
v -0.514578 -0.915324 -0.832858
v -0.623798 -0.396086 -1.120146
v 0.377166 -0.720551 -1.849370
v 0.438726 -0.984969 -1.608639
v -0.067573 0.091971 -1.254740
v 0.873346 0.257140 -1.313931
v 1.706218 -0.307514 -2.074327
v 0.874486 -0.453518 -2.022005
v 1.582700 -0.008756 -1.258953
v 1.691920 -0.527995 -0.971666
v 2.344373 -0.650451 -1.728520
v 2.282813 -0.386033 -1.969251
v -1.108148 0.051172 -0.102240
v 0.037540 0.156561 0.611116
v -0.264202 -0.897547 0.461557
v 1.239092 -0.248449 0.041003
v -0.578081 0.667012 -0.162128
v -0.969736 -0.636188 0.179957
v 0.689288 -0.730171 0.401574
v 1.100680 0.438911 -0.241193
v 0.375409 0.834388 -0.222111
vt 0.739694 0.255478
vt 0.673131 0.267697
vt 0.668791 0.207604
vt 0.744455 0.318170
vt 0.670478 0.335782
vt 0.672288 0.267670
vt 0.609427 0.269901
vt 0.611593 0.205611
vt 0.667262 0.207629
vt 0.607627 0.149890
vt 0.741659 0.388440
vt 0.661850 0.406016
vt 0.732665 0.461737
vt 0.644292 0.465890
vt 0.586590 0.392362
vt 0.601856 0.336292
vt 0.551407 0.270495
vt 0.556857 0.207131
vt 0.541153 0.322905
vt 0.513013 0.272874
vt 0.511415 0.221466
vt 0.513584 0.157236
vt 0.608691 0.149847
vt 0.560630 0.148415
vt 0.560033 0.100591
vt 0.611839 0.205620
vt 0.513810 0.157041
vt 0.520467 0.103580
vt 0.559732 0.100595
vt 0.529009 0.076031
vt 0.100823 0.618646
vt 0.071349 0.627348
vt 0.087371 0.592236
vt 0.094805 0.648535
vt 0.062126 0.649463
vt 0.068810 0.626074
vt 0.035205 0.588095
vt 0.053610 0.573088
vt 0.074731 0.539786
vt 0.513120 0.047185
vt 0.471927 0.052172
vt 0.494944 0.027814
vt 0.492127 0.070373
vt 0.481195 0.125644
vt 0.490930 0.071434
vt 0.456631 0.113218
vt 0.467627 0.057423
vt 0.480119 0.126747
vt 0.455809 0.191909
vt 0.454566 0.116506
vt 0.480479 0.198090
vt 0.492504 0.275022
vt 0.480048 0.198672
vt 0.468758 0.277382
vt 0.455039 0.194053
vt 0.045164 0.500807
vt 0.066818 0.475943
vt 0.051813 0.571878
vt 0.024420 0.507970
vt 0.041901 0.497083
vt 0.028531 0.416147
vt 0.049758 0.419989
vt 0.065802 0.474369
vt 0.066007 0.422486
vt 0.712942 0.524340
vt 0.615038 0.506806
vt 0.636904 0.602647
vt 0.678077 0.567734
vt 0.611163 0.504426
vt 0.531294 0.446391
vt 0.561717 0.427999
vt 0.643021 0.465503
vt 0.201692 0.075615
vt 0.176674 0.174037
vt 0.144947 0.142408
vt 0.282711 0.150386
vt 0.244686 0.108939
vt 0.199834 0.216624
vt 0.115179 0.258994
vt 0.168333 0.178423
vt 0.089508 0.235775
vt 0.130730 0.154071
vt 0.111256 0.260617
vt 0.052567 0.324553
vt 0.083170 0.240386
vt 0.133255 0.296890
vt 0.073660 0.341055
vt 0.089013 0.370998
vt 0.049953 0.418948
vt 0.072392 0.341740
vt 0.029503 0.412080
vt 0.049540 0.327775
vt 0.586698 0.392392
vt 0.521060 0.351132
vt 0.561791 0.428004
vt 0.495958 0.363305
vt 0.494961 0.361988
vt 0.492555 0.275468
vt 0.520544 0.350862
vt 0.540958 0.322867
vt 0.307733 0.211216
vt 0.203850 0.215427
vt 0.322657 0.283537
vt 0.222734 0.274647
vt 0.235623 0.344202
vt 0.149621 0.352488
vt 0.221479 0.274891
vt 0.135124 0.296435
vt 0.329697 0.353508
vt 0.327489 0.416487
vt 0.243882 0.411812
vt 0.245574 0.471792
vt 0.170752 0.481893
vt 0.161118 0.418303
vt 0.108229 0.486552
vt 0.177342 0.537141
vt 0.118989 0.544437
vt 0.127602 0.591622
vt 0.149055 0.352590
vt 0.098802 0.423621
vt 0.097591 0.423814
vt 0.322004 0.475561
vt 0.246349 0.471765
vt 0.332399 0.529919
vt 0.246598 0.523773
vt 0.262221 0.566613
vt 0.183191 0.581453
vt 0.246407 0.523794
vt 0.177426 0.537131
vt 0.742857 0.143050
vt 0.661622 0.155336
vt 0.667075 0.109423
vt 0.732965 0.197087
vt 0.662629 0.155077
vt 0.601434 0.104632
vt 0.674341 0.110349
vt 0.606857 0.068604
vt 0.611021 0.068597
vt 0.553702 0.061726
vt 0.555795 0.032239
vt 0.604207 0.104387
vt 0.552140 0.061957
vt 0.515644 0.045932
vt 0.548396 0.032634
vt 0.509149 0.020176
vt 0.183919 0.581350
vt 0.128453 0.591458
vt 0.200234 0.612901
vt 0.135136 0.629375
vt 0.142918 0.656448
vt 0.098037 0.649007
vt 0.132898 0.629756
vt 0.292164 0.147539
vt 0.345731 0.069699
vt 0.374302 0.119082
vt 0.265649 0.097934
vt 0.317820 0.020176
vt 0.979824 0.228827
vt 0.932634 0.172032
vt 0.979824 0.152034
vt 0.340015 0.731707
vt 0.392613 0.789655
vt 0.347503 0.787922
vt 0.977001 0.352821
vt 0.905800 0.405384
vt 0.932125 0.353806
vt 0.128543 0.796114
vt 0.157759 0.719901
vt 0.173970 0.769478
vt 0.043652 0.825145
vt 0.101333 0.833278
vt 0.773649 0.797197
vt 0.820414 0.690691
vt 0.828883 0.798920
vt 0.320647 0.841229
vt 0.900514 0.132753
vt 0.575806 0.784246
vt 0.646547 0.835410
vt 0.602638 0.837190
vt 0.530745 0.749461
vt 0.630116 0.690691
vt 0.717005 0.525478
vt 0.811051 0.487670
vt 0.794307 0.550589
vt 0.819010 0.415757
vt 0.532150 0.835045
vt 0.573884 0.885018
vt 0.746011 0.255445
vt 0.819033 0.226324
vt 0.822986 0.284909
vt 0.740412 0.196935
vt 0.825079 0.169693
vt 0.236462 0.730563
vt 0.923881 0.297199
vt 0.310560 0.210690
vt 0.407064 0.252514
vt 0.395412 0.181099
vt 0.276814 0.789701
vt 0.687676 0.806193
vt 0.748587 0.845254
vt 0.691472 0.574942
vt 0.744252 0.650339
vt 0.667048 0.623083
vt 0.769313 0.600321
vt 0.595094 0.892484
vt 0.647325 0.911717
vt 0.865430 0.200521
vt 0.912682 0.230473
vt 0.825079 0.347236
vt 0.746918 0.318311
vt 0.865430 0.350187
vt 0.480113 0.767488
vt 0.522386 0.694844
vt 0.327222 0.475775
vt 0.414215 0.501085
vt 0.335951 0.530425
vt 0.330234 0.416523
vt 0.407943 0.443586
vt 0.143765 0.872949
vt 0.194612 0.841021
vt 0.232680 0.797476
vt 0.411871 0.383675
vt 0.414215 0.320937
vt 0.762414 0.850219
vt 0.828883 0.867961
vt 0.066282 0.890372
vt 0.128786 0.884469
vt 0.087095 0.671817
vt 0.051453 0.642593
vt 0.030887 0.583106
vt 0.020176 0.500184
vt 0.580151 0.535861
vt 0.572442 0.528132
vt 0.530975 0.445733
vt 0.469004 0.279313
vt 0.258651 0.567799
vt 0.198282 0.613607
vt 0.148770 0.654413
vt 0.105008 0.672521
vt 0.241298 0.049292
vt 0.923135 0.233050
vt 0.393870 0.712872
vt 0.977560 0.485842
vt 0.024923 0.712872
vt 0.020176 0.719154
vt 0.733712 0.756623
vt 0.393870 0.921869
vt 0.970062 0.020176
vt 0.647325 0.703085
vt 0.486037 0.779290
vt 0.746113 0.142297
vt 0.236462 0.787517
vt 0.977560 0.273401
vt 0.318516 0.739178
vt 0.906066 0.302882
vt 0.454566 0.703619
vn 0.5161 -0.7695 0.3762
vn 0.2721 -0.9374 0.2172
vn 0.2557 -0.9527 0.1645
vn 0.4640 -0.7961 0.3884
vn 0.0951 -0.9893 0.1104
vn -0.1008 -0.9949 0.0002
vn -0.0402 -0.9948 -0.0941
vn 0.1067 -0.9940 0.0252
vn 0.1182 -0.9916 0.0530
vn -0.0079 -0.9981 -0.0611
vn 0.0199 -0.9977 -0.0645
vn 0.1241 -0.9920 0.0240
vn 0.4172 -0.8216 0.3886
vn 0.2443 -0.9519 0.1851
vn 0.2334 -0.9631 0.1338
vn 0.3614 -0.8803 0.3073
vn 0.1527 0.5513 -0.8202
vn 0.5685 0.0508 -0.8211
vn 0.1301 -0.3656 -0.9217
vn -0.0292 0.3078 -0.9510
vn 0.6646 -0.6936 -0.2779
vn 0.4771 -0.8767 0.0614
vn 0.2365 -0.9678 -0.0857
vn 0.2305 -0.8527 -0.4688
vn 0.0339 -0.8632 -0.5038
vn 0.0990 -0.9799 -0.1733
vn -0.0320 -0.9675 -0.2509
vn -0.1288 -0.8438 -0.5210
vn -0.1565 0.1087 -0.9817
vn -0.0621 -0.4992 -0.8642
vn -0.2244 -0.5577 -0.7991
vn -0.2559 -0.1394 -0.9566
vn -0.3842 -0.9088 -0.1630
vn -0.7104 -0.5807 -0.3976
vn -0.4791 -0.7460 -0.4625
vn -0.2397 -0.9384 -0.2491
vn -0.8116 -0.1787 -0.5563
vn -0.6989 0.2674 -0.6633
vn -0.5799 0.1769 -0.7953
vn -0.6471 -0.2520 -0.7195
vn -0.5485 -0.3745 -0.7476
vn -0.5240 0.0810 -0.8478
vn -0.4357 -0.0659 -0.8977
vn -0.4078 -0.5039 -0.7615
vn -0.1830 -0.9571 -0.2247
vn -0.3870 -0.7980 -0.4619
vn -0.2972 -0.8010 -0.5197
vn -0.1644 -0.9500 -0.2653
vn -0.4540 0.5833 -0.6735
vn -0.2572 0.7284 -0.6351
vn -0.2417 0.6487 -0.7216
vn -0.4029 0.4870 -0.7749
vn -0.0804 0.8140 -0.5753
vn 0.2126 0.8799 -0.4249
vn 0.1667 0.8662 -0.4711
vn -0.0834 0.7595 -0.6452
vn -0.0878 0.7303 -0.6775
vn 0.1153 0.8565 -0.5031
vn 0.0814 0.7912 -0.6061
vn -0.0854 0.6332 -0.7693
vn -0.3773 0.4290 -0.8207
vn -0.2318 0.6040 -0.7625
vn -0.2093 0.4927 -0.8446
vn -0.3380 0.3376 -0.8785
vn 0.6355 0.7702 -0.0529
vn 0.8263 0.4788 0.2967
vn 0.7220 0.5681 0.3949
vn 0.5461 0.8369 -0.0371
vn 0.8569 0.2074 0.4720
vn 0.7950 -0.2927 0.5313
vn 0.7094 -0.2691 0.6514
vn 0.7411 0.3110 0.5951
vn 0.7494 0.3053 0.5876
vn 0.6722 -0.3639 0.6448
vn 0.6950 -0.5294 0.4865
vn 0.9128 0.0532 0.4049
vn 0.4251 0.8957 -0.1304
vn 0.6625 0.6825 0.3086
vn 0.7307 0.6825 0.0153
vn 0.3548 0.8832 -0.3067
vn -0.8711 0.3388 -0.3554
vn -0.9812 -0.0433 -0.1880
vn -0.8468 0.2980 0.4406
vn -0.9160 0.2200 0.3354
vn 0.3107 0.3007 0.9017
vn 0.5223 0.4078 0.7489
vn 0.2855 0.5013 0.8168
vn -0.0879 0.5425 0.8354
vn -0.3215 0.3731 0.8703
vn -0.5741 0.2052 0.7927
vn -0.2764 0.2233 0.9348
vn 0.0854 0.1664 0.9824
vn -0.1852 -0.9460 0.2660
vn 0.0656 -0.9446 0.3216
vn -0.0848 -0.6159 0.7832
vn -0.2397 -0.6731 0.6997
vn 0.8760 -0.3270 0.3545
vn 0.9580 0.0802 0.2752
vn 0.8009 0.1000 0.5904
vn 0.8692 0.0413 0.4927
vn -0.2766 0.8488 -0.4505
vn -0.5231 0.7290 -0.4415
vn -0.4438 0.8761 0.1882
vn -0.2882 0.9575 -0.0110
vn -0.9036 -0.4269 -0.0351
vn -0.6134 -0.7749 0.1525
vn -0.6840 -0.2771 0.6748
vn -0.8897 -0.1132 0.4424
vn 0.3047 -0.8870 0.3470
vn 0.5627 -0.7313 0.3855
vn 0.4324 -0.4843 0.7605
vn 0.4416 -0.6250 0.6437
vn 0.8827 0.4569 0.1100
vn 0.6344 0.7670 -0.0962
vn 0.6309 0.6995 0.3358
vn 0.8240 0.4633 0.3263
vn 0.2247 0.9199 -0.3215
vn -0.0791 0.9093 -0.4085
vn -0.0453 0.9898 0.1349
vn 0.2694 0.9596 0.0815
vn 0.5551 -0.7509 0.3577
vn 0.2819 -0.9355 0.2132
vn 0.2685 -0.9495 0.1622
vn 0.5162 -0.7685 0.3781
vn 0.0862 -0.9898 0.1136
vn -0.1389 -0.9903 0.0066
vn -0.0842 -0.9918 -0.0960
vn 0.0950 -0.9951 0.0268
vn 0.1071 -0.9928 0.0546
vn -0.0442 -0.9970 -0.0642
vn -0.0080 -0.9982 -0.0590
vn 0.1172 -0.9927 0.0273
vn 0.4635 -0.8005 0.3799
vn 0.2568 -0.9490 0.1829
vn 0.2421 -0.9614 0.1309
vn 0.4130 -0.8621 0.2937
vn 0.2378 0.5549 -0.7972
vn 0.6038 0.0354 -0.7964
vn 0.1411 -0.3791 -0.9146
vn -0.0199 0.3022 -0.9530
vn 0.6250 -0.7352 -0.2625
vn 0.4084 -0.9106 0.0635
vn 0.2306 -0.9697 -0.0810
vn 0.2239 -0.8611 -0.4564
vn 0.0363 -0.8563 -0.5151
vn 0.1025 -0.9785 -0.1792
vn -0.0207 -0.9528 -0.3028
vn -0.1279 -0.8285 -0.5453
vn -0.1633 0.1171 -0.9796
vn -0.0690 -0.4879 -0.8701
vn -0.2277 -0.5518 -0.8023
vn -0.2911 -0.0640 -0.9546
vn -0.4611 -0.8717 -0.1656
vn -0.7058 -0.6264 -0.3309
vn -0.5561 -0.6683 -0.4942
vn -0.3209 -0.9076 -0.2707
vn -0.8171 -0.1569 -0.5547
vn -0.6857 0.2790 -0.6723
vn -0.5884 0.1682 -0.7909
vn -0.6705 -0.3126 -0.6729
vn -0.5641 -0.4383 -0.6998
vn -0.5334 0.0688 -0.8430
vn -0.4662 -0.1334 -0.8746
vn -0.4122 -0.5410 -0.7331
vn -0.2396 -0.9384 -0.2491
vn -0.4385 -0.7494 -0.4960
vn -0.2951 -0.8173 -0.4949
vn -0.1615 -0.9511 -0.2633
vn -0.4430 0.5870 -0.6776
vn -0.2549 0.7285 -0.6358
vn -0.2383 0.6494 -0.7222
vn -0.3952 0.4905 -0.7767
vn -0.0857 0.8142 -0.5741
vn 0.1694 0.8903 -0.4228
vn 0.1143 0.8714 -0.4770
vn -0.0905 0.7591 -0.6447
vn -0.0991 0.7296 -0.6766
vn 0.0684 0.8593 -0.5069
vn 0.0212 0.7959 -0.6050
vn -0.0956 0.6340 -0.7674
vn -0.3590 0.4376 -0.8244
vn -0.2230 0.6054 -0.7640
vn -0.2011 0.4913 -0.8474
vn -0.3050 0.3415 -0.8890
vn 0.5477 0.8345 -0.0601
vn 0.7745 0.5586 0.2968
vn 0.6269 0.6902 0.3614
vn 0.4170 0.9053 -0.0804
vn 0.8600 0.2156 0.4625
vn 0.8360 -0.2468 0.4901
vn 0.7643 -0.1955 0.6145
vn 0.7411 0.3111 0.5949
vn 0.7489 0.3038 0.5889
vn 0.7215 -0.3112 0.6186
vn 0.6877 -0.5319 0.4941
vn 0.9141 0.0550 0.4018
vn 0.3320 0.9304 -0.1554
vn 0.5867 0.7607 0.2775
vn 0.7078 0.7063 0.0150
vn 0.3602 0.8806 -0.3080
vn -0.8583 0.3856 -0.3387
vn -0.9795 -0.0601 -0.1922
vn -0.9279 0.0766 0.3649
vn -0.8269 0.3954 0.3999
vn 0.2564 0.3585 0.8976
vn 0.2630 0.4067 0.8749
vn 0.2486 0.4327 0.8666
vn -0.0018 0.5573 0.8303
vn -0.2753 0.3369 0.9004
vn -0.2785 0.3114 0.9085
vn -0.2550 0.2721 0.9279
vn -0.0182 0.1477 0.9889
vn -0.1822 -0.9470 0.2646
vn 0.0838 -0.9472 0.3096
vn 0.0564 -0.7374 0.6731
vn -0.1323 -0.6075 0.7832
vn 0.8549 -0.3465 0.3860
vn 0.9593 0.0839 0.2697
vn 0.8788 0.1903 0.4377
vn 0.7708 -0.0377 0.6359
vn -0.2947 0.8490 -0.4385
vn -0.5229 0.7290 -0.4417
vn -0.5550 0.8263 0.0961
vn -0.4003 0.8994 0.1758
vn -0.9025 -0.4296 -0.0303
vn -0.6426 -0.7595 0.1015
vn -0.8184 -0.2331 0.5253
vn -0.7473 -0.1832 0.6388
vn 0.2871 -0.8879 0.3594
vn 0.5572 -0.7330 0.3901
vn 0.5480 -0.5019 0.6692
vn 0.2649 -0.5859 0.7658
vn 0.8870 0.4489 0.1081
vn 0.6716 0.7328 -0.1093
vn 0.7681 0.5815 0.2679
vn 0.7038 0.5963 0.3861
vn 0.2323 0.9169 -0.3245
vn -0.0601 0.9062 -0.4186
vn 0.1277 0.9918 -0.0091
vn 0.1544 0.9720 0.1774
usemtl wing2.001
s off
f 4/1/1 94/2/1 53/3/1
f 34/4/2 58/5/2 94/2/2
f 94/6/3 21/7/3 61/8/3
f 53/9/4 61/8/4 18/10/4
f 9/11/5 95/12/5 58/5/5
f 35/13/6 50/14/6 95/12/6
f 95/12/7 17/15/7 59/16/7
f 58/5/8 59/16/8 21/7/8
f 21/7/9 96/17/9 60/18/9
f 59/16/10 51/19/10 96/17/10
f 96/17/11 6/20/11 43/21/11
f 60/18/12 43/21/12 13/22/12
f 18/23/13 97/24/13 52/25/13
f 61/26/14 60/18/14 97/24/14
f 97/24/15 13/27/15 42/28/15
f 52/29/16 42/28/16 5/30/16
f 8/31/17 98/32/17 47/33/17
f 49/34/18 62/35/18 98/32/18
f 98/36/19 22/37/19 65/38/19
f 47/33/20 65/38/20 15/39/20
f 48/40/21 62/41/21 16/42/21
f 5/30/22 99/43/22 48/40/22
f 42/28/23 63/44/23 99/45/23
f 99/45/24 22/46/24 62/47/24
f 63/48/25 64/49/25 22/50/25
f 13/22/26 100/51/26 63/48/26
f 43/21/27 44/52/27 100/53/27
f 100/53/28 14/54/28 64/55/28
f 15/39/29 101/56/29 46/57/29
f 65/58/30 64/59/30 101/56/30
f 101/60/31 14/61/31 45/62/31
f 46/63/32 45/62/32 7/64/32
f 2/65/33 102/66/33 50/14/33
f 10/67/34 102/66/34 36/68/34
f 102/69/35 23/70/35 69/71/35
f 50/72/36 69/71/36 17/15/36
f 10/73/37 103/74/37 66/75/37
f 1/76/38 103/74/38 37/77/38
f 54/78/39 67/79/39 103/80/39
f 103/80/40 23/81/40 66/82/40
f 67/83/41 68/84/41 23/85/41
f 19/86/42 104/87/42 67/83/42
f 55/88/43 45/89/43 104/90/43
f 104/90/44 14/91/44 68/92/44
f 17/93/45 105/94/45 51/19/45
f 69/95/46 68/96/46 105/94/46
f 68/97/47 44/98/47 105/99/47
f 51/100/48 44/98/48 6/20/48
f 38/101/49 54/102/49 1/76/49
f 11/103/50 106/104/50 38/101/50
f 70/105/51 73/106/51 106/107/51
f 106/107/52 19/108/52 54/78/52
f 39/109/53 70/105/53 11/103/53
f 3/110/54 107/111/54 39/109/54
f 56/112/55 71/113/55 107/111/55
f 107/111/56 24/114/56 70/105/56
f 71/113/57 72/115/57 24/114/57
f 20/116/58 108/117/58 71/113/58
f 57/118/59 47/33/59 108/117/59
f 108/117/60 15/39/60 72/115/60
f 73/119/61 55/88/61 19/86/61
f 24/114/62 109/120/62 73/119/62
f 72/115/63 46/57/63 109/121/63
f 109/120/64 7/64/64 55/88/64
f 41/122/65 56/123/65 3/110/65
f 12/124/66 110/125/66 41/122/66
f 74/126/67 77/127/67 110/128/67
f 110/128/68 20/129/68 56/112/68
f 12/130/69 111/131/69 74/132/69
f 40/133/70 53/3/70 111/131/70
f 111/134/71 18/10/71 75/135/71
f 74/136/72 75/135/72 25/137/72
f 25/138/73 112/139/73 76/140/73
f 75/141/74 52/25/74 112/139/74
f 112/142/75 5/30/75 48/143/75
f 76/144/76 48/143/76 16/145/76
f 77/146/77 57/147/77 20/116/77
f 25/148/78 113/149/78 77/146/78
f 76/150/79 49/151/79 113/152/79
f 113/152/80 8/31/80 57/118/80
f 1/153/81 114/154/81 87/155/81
f 37/156/82 86/157/82 114/154/82
f 114/158/83 31/159/83 81/160/83
f 87/161/84 81/162/84 26/163/84
f 84/164/85 78/165/85 29/166/85
f 85/167/86 84/168/86 33/169/86
f 83/170/87 85/167/87 28/171/87
f 32/172/88 115/173/88 83/174/88
f 81/162/89 82/175/89 26/163/89
f 80/176/90 81/160/90 31/159/90
f 79/177/91 80/178/91 27/179/91
f 30/180/92 115/181/92 79/177/92
f 2/182/93 116/183/93 89/184/93
f 35/13/94 88/185/94 116/183/94
f 116/186/95 30/180/95 79/177/95
f 116/186/96 27/179/96 89/187/96
f 4/188/97 117/189/97 91/190/97
f 40/191/98 90/192/98 117/189/98
f 117/193/99 33/169/99 84/168/99
f 91/194/100 84/164/100 29/166/100
f 38/195/101 92/196/101 11/103/101
f 1/153/102 118/197/102 38/195/102
f 118/198/103 26/163/103 82/175/103
f 118/199/104 32/172/104 92/200/104
f 36/201/105 86/202/105 10/203/105
f 2/182/106 119/204/106 36/201/106
f 89/205/107 80/178/107 119/206/107
f 119/207/108 31/159/108 86/208/108
f 9/11/109 120/209/109 88/185/109
f 34/210/110 91/190/110 120/209/110
f 120/211/111 29/166/111 78/165/111
f 88/212/112 78/213/112 30/180/112
f 41/214/113 90/215/113 12/216/113
f 3/217/114 121/218/114 41/214/114
f 93/219/115 85/167/115 121/220/115
f 121/220/116 33/169/116 90/221/116
f 39/109/117 93/222/117 3/217/117
f 11/103/118 122/223/118 39/109/118
f 92/224/119 83/174/119 122/225/119
f 122/226/120 28/171/120 93/227/120
f 4/1/121 34/4/121 94/2/121
f 34/4/122 9/11/122 58/5/122
f 94/6/123 58/5/123 21/7/123
f 53/9/124 94/6/124 61/8/124
f 9/11/125 35/13/125 95/12/125
f 35/13/126 2/65/126 50/14/126
f 95/12/127 50/72/127 17/15/127
f 58/5/128 95/12/128 59/16/128
f 21/7/129 59/16/129 96/17/129
f 59/16/130 17/93/130 51/19/130
f 96/17/131 51/100/131 6/20/131
f 60/18/132 96/17/132 43/21/132
f 18/23/133 61/26/133 97/24/133
f 61/26/134 21/7/134 60/18/134
f 97/24/135 60/18/135 13/27/135
f 52/29/136 97/24/136 42/28/136
f 8/31/137 49/34/137 98/32/137
f 49/34/138 16/228/138 62/35/138
f 98/36/139 62/229/139 22/37/139
f 47/33/140 98/36/140 65/38/140
f 48/40/141 99/43/141 62/41/141
f 5/30/142 42/28/142 99/43/142
f 42/28/143 13/27/143 63/44/143
f 99/45/144 63/44/144 22/46/144
f 63/48/145 100/51/145 64/49/145
f 13/22/146 43/21/146 100/51/146
f 43/21/147 6/20/147 44/52/147
f 100/53/148 44/52/148 14/54/148
f 15/39/149 65/58/149 101/56/149
f 65/58/150 22/230/150 64/59/150
f 101/60/151 64/231/151 14/61/151
f 46/63/152 101/60/152 45/62/152
f 2/65/153 36/68/153 102/66/153
f 10/67/154 66/232/154 102/66/154
f 102/69/155 66/233/155 23/70/155
f 50/72/156 102/69/156 69/71/156
f 10/73/157 37/77/157 103/74/157
f 1/76/158 54/102/158 103/74/158
f 54/78/159 19/108/159 67/79/159
f 103/80/160 67/79/160 23/81/160
f 67/83/161 104/87/161 68/84/161
f 19/86/162 55/88/162 104/87/162
f 55/88/163 7/64/163 45/89/163
f 104/90/164 45/89/164 14/91/164
f 17/93/165 69/95/165 105/94/165
f 69/95/166 23/234/166 68/96/166
f 68/97/167 14/235/167 44/98/167
f 51/100/168 105/99/168 44/98/168
f 38/101/169 106/104/169 54/102/169
f 11/103/170 70/105/170 106/104/170
f 70/105/171 24/114/171 73/106/171
f 106/107/172 73/106/172 19/108/172
f 39/109/173 107/111/173 70/105/173
f 3/110/174 56/123/174 107/111/174
f 56/112/175 20/129/175 71/113/175
f 107/111/176 71/113/176 24/114/176
f 71/113/177 108/117/177 72/115/177
f 20/116/178 57/147/178 108/117/178
f 57/118/179 8/31/179 47/33/179
f 108/117/180 47/33/180 15/39/180
f 73/119/181 109/120/181 55/88/181
f 24/114/182 72/115/182 109/120/182
f 72/115/183 15/39/183 46/57/183
f 109/120/184 46/63/184 7/64/184
f 41/122/185 110/125/185 56/123/185
f 12/124/186 74/236/186 110/125/186
f 74/126/187 25/237/187 77/127/187
f 110/128/188 77/127/188 20/129/188
f 12/130/189 40/133/189 111/131/189
f 40/133/190 4/1/190 53/3/190
f 111/134/191 53/9/191 18/10/191
f 74/136/192 111/134/192 75/135/192
f 25/138/193 75/141/193 112/139/193
f 75/141/194 18/23/194 52/25/194
f 112/142/195 52/29/195 5/30/195
f 76/144/196 112/142/196 48/143/196
f 77/146/197 113/149/197 57/147/197
f 25/148/198 76/238/198 113/149/198
f 76/150/199 16/239/199 49/151/199
f 113/152/200 49/151/200 8/31/200
f 1/153/201 37/156/201 114/154/201
f 37/156/202 10/240/202 86/157/202
f 114/158/203 86/241/203 31/159/203
f 87/161/204 114/242/204 81/162/204
f 84/164/205 115/243/205 78/165/205
f 85/167/206 115/244/206 84/168/206
f 83/170/207 115/245/207 85/167/207
f 32/172/208 82/246/208 115/173/208
f 81/162/209 115/247/209 82/175/209
f 80/176/210 115/248/210 81/160/210
f 79/177/211 115/249/211 80/178/211
f 30/180/212 78/213/212 115/181/212
f 2/182/213 35/13/213 116/183/213
f 35/13/214 9/11/214 88/185/214
f 116/186/215 88/250/215 30/180/215
f 116/186/216 79/177/216 27/179/216
f 4/188/217 40/191/217 117/189/217
f 40/191/218 12/251/218 90/192/218
f 117/193/219 90/252/219 33/169/219
f 91/194/220 117/253/220 84/164/220
f 38/195/221 118/197/221 92/196/221
f 1/153/222 87/155/222 118/197/222
f 118/198/223 87/254/223 26/163/223
f 118/199/224 82/246/224 32/172/224
f 36/201/225 119/204/225 86/202/225
f 2/182/226 89/184/226 119/204/226
f 89/205/227 27/179/227 80/178/227
f 119/207/228 80/176/228 31/159/228
f 9/11/229 34/210/229 120/209/229
f 34/210/230 4/188/230 91/190/230
f 120/211/231 91/255/231 29/166/231
f 88/212/232 120/256/232 78/213/232
f 41/214/233 121/218/233 90/215/233
f 3/217/234 93/222/234 121/218/234
f 93/219/235 28/171/235 85/167/235
f 121/220/236 85/167/236 33/169/236
f 39/109/237 122/223/237 93/222/237
f 11/103/238 92/196/238 122/223/238
f 92/224/239 32/172/239 83/174/239
f 122/226/240 83/170/240 28/171/240
