# Blender v2.80 (sub 75) OBJ File: 'cachalotbalaine_backup5.blend'
# www.blender.org
o wing1_Cube.003
v -0.774846 -1.077430 0.814740
v -0.774846 0.147745 1.304054
v 1.034772 -1.077431 0.814741
v 1.034772 0.147745 1.304054
v 2.193537 -0.701761 2.564339
v 0.836885 -0.701761 2.564339
v 0.836885 -1.227774 2.549039
v 2.193537 -1.227774 2.549039
v 0.152642 0.374291 1.335263
v -1.072469 -0.518597 1.204553
v 0.152642 -1.256440 0.668310
v 1.397324 -0.518597 1.204553
v 1.631679 -0.687210 2.652742
v 0.810290 -0.993167 2.649543
v 1.631679 -1.295929 2.637984
v 2.453472 -0.993167 2.649543
v 0.055916 -0.380521 2.084648
v 1.713991 -0.380521 2.084648
v 0.055916 -1.212893 1.948022
v 1.713991 -1.212893 1.948022
v 0.901782 -0.226430 2.101728
v 1.892939 -1.053762 2.849633
v -0.241087 -0.813592 2.063433
v 0.901782 -1.357597 1.912257
v 2.050098 -0.813592 2.063433
v -0.764209 -0.636458 -0.021473
v -0.764209 0.423797 0.445097
v 0.725574 -0.636458 -0.021473
v 0.725574 0.423797 0.445098
v -0.007793 0.632730 0.468669
v -1.021430 -0.149297 0.326817
v -0.007793 -0.794660 -0.172489
v 1.023095 -0.149297 0.326818
v 0.636683 0.322829 1.323273
v -0.355914 0.322829 1.323273
v -1.006578 -0.159648 1.285251
v -1.006578 -0.838327 1.016718
v -0.355913 -1.214211 0.699893
v 0.636683 -1.214211 0.699893
v 1.300804 -0.159649 1.285251
v 1.300804 -0.838327 1.016718
v 2.003656 -0.692177 2.625458
v 1.187579 -0.692177 2.625458
v 0.819328 -0.830131 2.624326
v 0.819328 -1.138860 2.617901
v 1.187579 -1.274667 2.611151
v 2.003656 -1.274666 2.611151
v 2.372179 -0.830131 2.624326
v 2.372179 -1.138860 2.617900
v -0.415275 -0.128549 1.733088
v 0.508351 -0.577899 2.380023
v 2.035864 -0.577899 2.380022
v 1.335546 -0.128549 1.733087
v -0.415275 -1.176282 1.416292
v 0.508351 -1.230159 2.338040
v 1.335546 -1.176282 1.416292
v 2.035863 -1.230160 2.338040
v 0.477215 0.067734 1.755375
v 0.440643 -0.263150 2.094388
v 1.308471 -0.474546 2.408977
v 1.345582 -0.263150 2.094388
v 2.283327 -1.038924 2.800532
v 1.828298 -0.881199 2.800931
v 1.373320 -1.038924 2.800532
v 1.828298 -1.196249 2.799087
v -0.721208 -0.687458 1.669671
v -0.170659 -1.035847 2.007946
v 0.271726 -0.916149 2.396595
v -0.170659 -0.578499 2.082405
v 0.477215 -1.342350 1.321628
v 1.345582 -1.321525 1.918358
v 1.308471 -1.344765 2.350243
v 0.440643 -1.321525 1.918358
v 1.688300 -0.687458 1.669671
v 1.960630 -0.578499 2.082405
v 2.346855 -0.916149 2.396595
v 1.960629 -1.035846 2.007946
v 0.346513 0.529305 0.368057
v -0.374568 0.529304 0.368057
v -0.848649 0.156587 0.326574
v -0.848649 -0.361517 0.100897
v -0.374568 -0.650928 -0.158478
v 0.346513 -0.650928 -0.158478
v 0.831109 0.156587 0.326575
v 0.831109 -0.361517 0.100897
v -1.182277 -0.306284 0.690534
v -0.894448 -0.877524 0.259784
v 0.016712 0.616023 0.839601
v -0.894448 0.381757 0.806437
v 1.237289 -0.306284 0.690534
v 0.882209 0.381756 0.806437
v 0.016712 -1.057573 0.094155
v 0.882209 -0.877524 0.259785
v 0.946651 0.021770 1.746685
v -0.010487 0.021770 1.746685
v 0.868925 -0.497648 2.396271
v 1.714994 -0.497647 2.396270
v 2.207120 -1.179328 2.755788
v 2.207119 -0.872088 2.758112
v 1.336267 -0.872087 2.758111
v 1.336267 -1.179328 2.755789
v -0.649832 -0.385694 1.721250
v -0.649832 -0.963582 1.547706
v 0.323275 -1.092206 2.369589
v 0.323275 -0.730053 2.392036
v -0.010487 -1.302090 1.341912
v 0.946651 -1.302090 1.341912
v 1.714994 -1.315683 2.342000
v 0.868925 -1.315683 2.342001
v 1.594700 -0.963582 1.547706
v 1.594700 -0.385695 1.721251
v 2.261771 -0.730053 2.392036
v 2.261771 -1.092206 2.369589
v -1.111743 -0.629499 0.477288
v -0.011399 -0.007473 -0.007386
v -0.480682 0.560270 0.818447
v 1.135159 0.064989 0.775522
v -0.480682 -1.007113 0.126595
v -1.111743 0.064989 0.775522
v 0.489244 0.560270 0.818447
v 1.135159 -0.629499 0.477288
v 0.489244 -1.007113 0.126595
vt 0.774323 0.268261
vt 0.698501 0.282179
vt 0.693558 0.213727
vt 0.779746 0.339673
vt 0.695480 0.359734
vt 0.697542 0.282148
vt 0.625937 0.284689
vt 0.628404 0.211458
vt 0.691816 0.213757
vt 0.623886 0.147986
vt 0.776561 0.419716
vt 0.685652 0.439737
vt 0.766316 0.503208
vt 0.665652 0.507939
vt 0.599924 0.424184
vt 0.617313 0.360315
vt 0.559846 0.285367
vt 0.566054 0.213189
vt 0.548167 0.345066
vt 0.516113 0.288076
vt 0.514292 0.229518
vt 0.516763 0.156354
vt 0.625098 0.147937
vt 0.570353 0.146306
vt 0.569672 0.091830
vt 0.628685 0.211468
vt 0.517020 0.156132
vt 0.524603 0.095235
vt 0.569329 0.091835
vt 0.534333 0.063854
vt 0.092095 0.681942
vt 0.058521 0.691854
vt 0.076772 0.651859
vt 0.085240 0.715988
vt 0.048015 0.717045
vt 0.055629 0.690403
vt 0.017349 0.647142
vt 0.038314 0.630047
vt 0.062373 0.592113
vt 0.516235 0.030996
vt 0.469312 0.036677
vt 0.495531 0.008931
vt 0.492321 0.057409
vt 0.479869 0.120368
vt 0.490957 0.058617
vt 0.451888 0.106213
vt 0.464414 0.042657
vt 0.478643 0.121624
vt 0.450952 0.195850
vt 0.449537 0.109958
vt 0.479053 0.202891
vt 0.492751 0.290523
vt 0.478562 0.203553
vt 0.465702 0.293211
vt 0.450074 0.198292
vt 0.028694 0.547713
vt 0.053360 0.519390
vt 0.036267 0.628669
vt 0.005064 0.555872
vt 0.024977 0.543471
vt 0.009747 0.451277
vt 0.033927 0.455654
vt 0.052202 0.517597
vt 0.052436 0.458498
vt 0.743850 0.574519
vt 0.632328 0.554546
vt 0.657236 0.663718
vt 0.704135 0.623949
vt 0.627914 0.551834
vt 0.536936 0.485728
vt 0.571591 0.464777
vt 0.664204 0.507498
vt 0.206993 0.063380
vt 0.178496 0.175492
vt 0.142356 0.139464
vt 0.299282 0.148551
vt 0.255968 0.101339
vt 0.204878 0.224002
vt 0.108447 0.272266
vt 0.168995 0.180487
vt 0.079206 0.245817
vt 0.126161 0.152748
vt 0.103979 0.274115
vt 0.037127 0.346943
vt 0.071986 0.251070
vt 0.129038 0.315432
vt 0.061154 0.365741
vt 0.078642 0.399848
vt 0.034149 0.454468
vt 0.059709 0.366521
vt 0.010854 0.446645
vt 0.033679 0.350613
vt 0.600046 0.424218
vt 0.525279 0.377219
vt 0.571675 0.464783
vt 0.496686 0.391085
vt 0.495550 0.389585
vt 0.492809 0.291031
vt 0.524691 0.376911
vt 0.547945 0.345023
vt 0.327784 0.217842
vt 0.209452 0.222639
vt 0.344783 0.300223
vt 0.230962 0.290096
vt 0.245644 0.369325
vt 0.147680 0.378764
vt 0.229533 0.290374
vt 0.131167 0.314914
vt 0.352803 0.379925
vt 0.350288 0.451664
vt 0.255051 0.446339
vt 0.256979 0.514662
vt 0.171750 0.526168
vt 0.160776 0.453733
vt 0.100530 0.531475
vt 0.179256 0.589100
vt 0.112787 0.597411
vt 0.122598 0.651159
vt 0.147036 0.378880
vt 0.089792 0.459790
vt 0.088413 0.460011
vt 0.344040 0.518955
vt 0.257862 0.514631
vt 0.355881 0.580874
vt 0.258145 0.573874
vt 0.275942 0.622672
vt 0.185920 0.639576
vt 0.257928 0.573897
vt 0.179352 0.589089
vt 0.777926 0.140195
vt 0.685391 0.154190
vt 0.691603 0.101891
vt 0.766658 0.201748
vt 0.686539 0.153894
vt 0.616832 0.096433
vt 0.699880 0.102945
vt 0.623010 0.055394
vt 0.627753 0.055386
vt 0.562461 0.047560
vt 0.564845 0.013971
vt 0.619991 0.096155
vt 0.560682 0.047823
vt 0.519109 0.029569
vt 0.556417 0.014421
vt 0.511711 0.000230
vt 0.186748 0.639459
vt 0.123568 0.650973
vt 0.205333 0.675398
vt 0.131180 0.694163
vt 0.140044 0.725002
vt 0.088921 0.716526
vt 0.128631 0.694598
vt 0.310050 0.145309
vt 0.371067 0.056642
vt 0.403612 0.112894
vt 0.279846 0.088804
vt 0.339274 0.000230
vt 0.425638 0.981444
vt 0.371884 0.916749
vt 0.425638 0.893969
vt 0.233528 0.765224
vt 0.293442 0.831233
vt 0.242057 0.829258
vt 0.999133 0.090697
vt 0.918029 0.150571
vt 0.948015 0.091818
vt 0.793006 0.813323
vt 0.826286 0.726510
vt 0.844752 0.782983
vt 0.696308 0.846392
vt 0.762012 0.855657
vt 0.098161 0.865091
vt 0.151430 0.743770
vt 0.161076 0.867053
vt 0.211467 0.889980
vt 0.335297 0.872006
vt 0.587640 0.825071
vt 0.668220 0.883352
vt 0.618203 0.885379
vt 0.536310 0.785449
vt 0.649503 0.718503
vt 0.748478 0.575815
vt 0.855605 0.532749
vt 0.836532 0.604418
vt 0.864671 0.450832
vt 0.537911 0.882935
vt 0.585450 0.939860
vt 0.781518 0.268223
vt 0.864697 0.235052
vt 0.869200 0.301785
vt 0.775141 0.201575
vt 0.871584 0.170543
vt 0.915936 0.738655
vt 0.938625 0.027338
vt 0.331004 0.217243
vt 0.440931 0.264884
vt 0.427658 0.183536
vt 0.161536 0.831285
vt 0.000230 0.875339
vt 0.069613 0.919832
vt 0.719394 0.632159
vt 0.779515 0.718044
vt 0.691572 0.686996
vt 0.808062 0.661068
vt 0.609610 0.948364
vt 0.669106 0.970272
vt 0.295333 0.949200
vt 0.349158 0.983318
vt 0.871584 0.372781
vt 0.782552 0.339833
vt 0.872044 0.087696
vt 0.478637 0.805982
vt 0.526789 0.723234
vt 0.349983 0.519199
vt 0.449077 0.548029
vt 0.359927 0.581450
vt 0.353415 0.451706
vt 0.441932 0.482533
vt 0.810345 0.900845
vt 0.868264 0.864476
vt 0.911627 0.814874
vt 0.446406 0.414289
vt 0.449077 0.342824
vt 0.085363 0.925488
vt 0.161076 0.945697
vt 0.722086 0.920692
vt 0.793283 0.913968
vt 0.076457 0.742508
vt 0.035858 0.709220
vt 0.012431 0.641459
vt 0.000230 0.547003
vt 0.592589 0.587643
vt 0.583808 0.578839
vt 0.536574 0.484978
vt 0.465982 0.295411
vt 0.271874 0.624023
vt 0.203109 0.676203
vt 0.146710 0.722684
vt 0.096861 0.743311
vt 0.252108 0.033396
vt 0.361064 0.986253
vt 0.294874 0.743770
vt 0.999770 0.242220
vt 0.674974 0.718503
vt 0.669566 0.725659
vt 0.052669 0.818873
vt 0.294874 0.981836
vt 0.414518 0.743770
vt 0.669106 0.732621
vt 0.485385 0.819426
vt 0.781635 0.139337
vt 0.915936 0.803530
vt 0.999770 0.000230
vt 0.209039 0.773735
vt 0.918331 0.033812
vt 0.449537 0.733229
vn 0.3513 0.8798 0.3203
vn 0.0923 0.8422 0.5312
vn 0.0768 0.8126 0.5778
vn 0.2948 0.8981 0.3264
vn -0.0840 0.7729 0.6289
vn -0.2708 0.6664 0.6947
vn -0.2053 0.6094 0.7658
vn -0.0682 0.7176 0.6931
vn -0.0582 0.7376 0.6727
vn -0.1762 0.6405 0.7475
vn -0.1486 0.6424 0.7518
vn -0.0507 0.7183 0.6939
vn 0.2443 0.9080 0.3405
vn 0.0644 0.8248 0.5618
vn 0.0550 0.7943 0.6050
vn 0.1844 0.8815 0.4346
vn 0.2959 -0.9342 0.1994
vn 0.6184 -0.5227 0.5869
vn 0.1218 -0.3804 0.9167
vn 0.0832 -0.8897 0.4489
vn 0.5508 0.3889 0.7385
vn 0.3139 0.7239 0.6143
vn 0.0708 0.6426 0.7629
vn 0.1085 0.2912 0.9505
vn -0.0845 0.2412 0.9668
vn -0.0611 0.5661 0.8221
vn -0.1829 0.4811 0.8574
vn -0.2400 0.1888 0.9522
vn -0.0744 -0.7958 0.6010
vn -0.0937 -0.2798 0.9555
vn -0.2675 -0.2203 0.9380
vn -0.2164 -0.6242 0.7507
vn -0.5244 0.4449 0.7260
vn -0.7740 -0.0003 0.6332
vn -0.5711 0.1054 0.8141
vn -0.3821 0.4281 0.8190
vn -0.7942 -0.4053 0.4527
vn -0.5999 -0.7687 0.2217
vn -0.4903 -0.7804 0.3880
vn -0.6351 -0.4435 0.6324
vn -0.5576 -0.3631 0.7465
vn -0.4488 -0.7426 0.4972
vn -0.3842 -0.6625 0.6430
vn -0.4407 -0.2608 0.8589
vn -0.3311 0.4675 0.8196
vn -0.4896 0.1566 0.8577
vn -0.3983 0.1326 0.9076
vn -0.3091 0.4370 0.8447
vn -0.3040 -0.9523 0.0252
vn -0.0879 -0.9922 -0.0885
vn -0.0810 -0.9963 0.0298
vn -0.2641 -0.9496 0.1687
vn 0.0970 -0.9794 -0.1770
vn 0.3871 -0.8698 -0.3060
vn 0.3425 -0.9007 -0.2674
vn 0.0889 -0.9920 -0.0895
vn 0.0816 -0.9956 -0.0466
vn 0.2923 -0.9252 -0.2421
vn 0.2540 -0.9589 -0.1263
vn 0.0728 -0.9936 0.0868
vn -0.2461 -0.9381 0.2439
vn -0.0765 -0.9929 0.0910
vn -0.0685 -0.9710 0.2291
vn -0.2197 -0.9097 0.3523
vn 0.7610 -0.4612 -0.4563
vn 0.8766 0.0179 -0.4809
vn 0.7834 0.0089 -0.6215
vn 0.6835 -0.5105 -0.5216
vn 0.8489 0.3334 -0.4100
vn 0.6982 0.7084 -0.1034
vn 0.6107 0.7632 -0.2113
vn 0.7454 0.3304 -0.5790
vn 0.7530 0.3303 -0.5691
vn 0.5581 0.8174 -0.1427
vn 0.5618 0.8226 0.0874
vn 0.8815 0.4009 -0.2495
vn 0.5805 -0.6370 -0.5073
vn 0.7500 -0.1405 -0.6464
vn 0.8352 -0.3370 -0.4347
vn 0.5201 -0.7649 -0.3800
vn -0.7759 -0.6280 -0.0590
vn -0.9604 -0.2654 0.0845
vn -0.8083 -0.0322 -0.5879
vn -0.8833 -0.0646 -0.4644
vn 0.3016 0.4836 -0.8217
vn 0.5375 0.3367 -0.7731
vn 0.3166 0.2816 -0.9058
vn -0.0444 0.2049 -0.9778
vn -0.3055 0.3073 -0.9012
vn -0.5780 0.3259 -0.7482
vn -0.2910 0.4632 -0.8371
vn 0.0519 0.5957 -0.8015
vn -0.3618 0.8071 0.4665
vn -0.1184 0.8869 0.4464
vn -0.2381 0.9635 -0.1223
vn -0.3950 0.9180 -0.0356
vn 0.7828 0.6201 0.0516
vn 0.9386 0.2980 -0.1737
vn 0.7681 0.4817 -0.4219
vn 0.8311 0.4641 -0.3063
vn -0.0976 -0.9473 -0.3050
vn -0.3612 -0.8994 -0.2463
vn -0.2967 -0.5413 -0.7867
vn -0.1174 -0.7125 -0.6918
vn -0.9598 0.1190 0.2542
vn -0.7462 0.5386 0.3913
vn -0.7620 0.5552 -0.3333
vn -0.9215 0.2442 -0.3021
vn 0.1250 0.9048 0.4070
vn 0.4031 0.8678 0.2904
vn 0.2945 0.9425 -0.1581
vn 0.2865 0.9578 0.0242
vn 0.9398 -0.0900 -0.3298
vn 0.7619 -0.4899 -0.4236
vn 0.7201 -0.1381 -0.6800
vn 0.8698 0.0491 -0.4910
vn 0.3995 -0.8220 -0.4059
vn 0.1044 -0.9265 -0.3615
vn 0.1179 -0.5913 -0.7978
vn 0.4254 -0.5564 -0.7138
vn 0.3940 0.8604 0.3233
vn 0.1025 0.8396 0.5335
vn 0.0901 0.8109 0.5782
vn 0.3515 0.8805 0.3182
vn -0.0931 0.7740 0.6263
vn -0.3078 0.6614 0.6839
vn -0.2480 0.5988 0.7615
vn -0.0800 0.7176 0.6918
vn -0.0694 0.7377 0.6715
vn -0.2115 0.6315 0.7460
vn -0.1765 0.6420 0.7461
vn -0.0578 0.7200 0.6915
vn 0.2940 0.8950 0.3355
vn 0.0774 0.8233 0.5623
vn 0.0640 0.7925 0.6065
vn 0.2391 0.8679 0.4355
vn 0.3788 -0.9063 0.1875
vn 0.6489 -0.4887 0.5831
vn 0.1298 -0.3643 0.9222
vn 0.0916 -0.8858 0.4550
vn 0.5038 0.4218 0.7538
vn 0.2404 0.7373 0.6313
vn 0.0644 0.6462 0.7605
vn 0.0997 0.3047 0.9472
vn -0.0802 0.2289 0.9701
vn -0.0570 0.5615 0.8255
vn -0.1661 0.4360 0.8845
vn -0.2350 0.1613 0.9585
vn -0.0797 -0.8012 0.5931
vn -0.0982 -0.2928 0.9511
vn -0.2694 -0.2271 0.9359
vn -0.2382 -0.6802 0.6932
vn -0.5935 0.4049 0.6956
vn -0.7815 0.0791 0.6189
vn -0.6314 0.0168 0.7753
vn -0.4553 0.3782 0.8060
vn -0.7960 -0.4200 0.4357
vn -0.5843 -0.7809 0.2209
vn -0.5005 -0.7727 0.3904
vn -0.6714 -0.3727 0.6405
vn -0.5869 -0.2879 0.7567
vn -0.4604 -0.7324 0.5016
vn -0.4272 -0.6048 0.6720
vn -0.4532 -0.2159 0.8648
vn -0.3821 0.4280 0.8190
vn -0.5297 0.0906 0.8433
vn -0.4005 0.1617 0.9019
vn -0.3066 0.4396 0.8442
vn -0.2923 -0.9560 0.0264
vn -0.0856 -0.9924 -0.0880
vn -0.0776 -0.9965 0.0300
vn -0.2558 -0.9520 0.1681
vn 0.0917 -0.9797 -0.1784
vn 0.3463 -0.8825 -0.3182
vn 0.2923 -0.9171 -0.2711
vn 0.0819 -0.9926 -0.0902
vn 0.0703 -0.9964 -0.0476
vn 0.2469 -0.9375 -0.2452
vn 0.1956 -0.9713 -0.1352
vn 0.0629 -0.9945 0.0841
vn -0.2264 -0.9435 0.2419
vn -0.0675 -0.9935 0.0917
vn -0.0605 -0.9707 0.2327
vn -0.1859 -0.9144 0.3595
vn 0.6862 -0.5249 -0.5036
vn 0.8394 -0.0453 -0.5416
vn 0.7130 -0.1143 -0.6918
vn 0.5711 -0.6095 -0.5498
vn 0.8540 0.3216 -0.4089
vn 0.7489 0.6545 -0.1036
vn 0.6796 0.6956 -0.2330
vn 0.7454 0.3302 -0.5790
vn 0.7522 0.3322 -0.5690
vn 0.6173 0.7708 -0.1576
vn 0.5536 0.8286 0.0832
vn 0.8832 0.3977 -0.2484
vn 0.4965 -0.6938 -0.5216
vn 0.6909 -0.2287 -0.6858
vn 0.8167 -0.3573 -0.4530
vn 0.5251 -0.7631 -0.3768
vn -0.7563 -0.6462 -0.1027
vn -0.9614 -0.2565 0.0994
vn -0.9215 0.0527 -0.3848
vn -0.7694 -0.1246 -0.6265
vn 0.2584 0.4321 -0.8640
vn 0.2747 0.3840 -0.8815
vn 0.2654 0.3579 -0.8952
vn 0.0431 0.2053 -0.9778
vn -0.2682 0.3611 -0.8931
vn -0.2763 0.3838 -0.8811
vn -0.2611 0.4284 -0.8650
vn -0.0535 0.5960 -0.8012
vn -0.3589 0.8073 0.4684
vn -0.1002 0.8832 0.4582
vn -0.1134 0.9922 0.0522
vn -0.2833 0.9499 -0.1321
vn 0.7567 0.6524 0.0416
vn 0.9408 0.2917 -0.1724
vn 0.8696 0.3244 -0.3721
vn 0.7119 0.6035 -0.3590
vn -0.1161 -0.9420 -0.3150
vn -0.3610 -0.8995 -0.2462
vn -0.4089 -0.5907 -0.6956
vn -0.2492 -0.5588 -0.7910
vn -0.9595 0.1244 0.2528
vn -0.7690 0.4871 0.4139
vn -0.8772 0.3970 -0.2700
vn -0.8057 0.4548 -0.3794
vn 0.1067 0.9114 0.3975
vn 0.3972 0.8714 0.2880
vn 0.4107 0.9089 -0.0723
vn 0.1120 0.9883 -0.1034
vn 0.9427 -0.0851 -0.3225
vn 0.7934 -0.4696 -0.3873
vn 0.8389 -0.0826 -0.5380
vn 0.7709 -0.0196 -0.6367
vn 0.4066 -0.8208 -0.4011
vn 0.1232 -0.9283 -0.3507
vn 0.2973 -0.6661 -0.6841
vn 0.3085 -0.5159 -0.7991
s off
f 4/1/1 94/2/1 53/3/1
f 34/4/2 58/5/2 94/2/2
f 94/6/3 21/7/3 61/8/3
f 53/9/4 61/8/4 18/10/4
f 9/11/5 95/12/5 58/5/5
f 35/13/6 50/14/6 95/12/6
f 95/12/7 17/15/7 59/16/7
f 58/5/8 59/16/8 21/7/8
f 21/7/9 96/17/9 60/18/9
f 59/16/10 51/19/10 96/17/10
f 96/17/11 6/20/11 43/21/11
f 60/18/12 43/21/12 13/22/12
f 18/23/13 97/24/13 52/25/13
f 61/26/14 60/18/14 97/24/14
f 97/24/15 13/27/15 42/28/15
f 52/29/16 42/28/16 5/30/16
f 8/31/17 98/32/17 47/33/17
f 49/34/18 62/35/18 98/32/18
f 98/36/19 22/37/19 65/38/19
f 47/33/20 65/38/20 15/39/20
f 48/40/21 62/41/21 16/42/21
f 5/30/22 99/43/22 48/40/22
f 42/28/23 63/44/23 99/45/23
f 99/45/24 22/46/24 62/47/24
f 63/48/25 64/49/25 22/50/25
f 13/22/26 100/51/26 63/48/26
f 43/21/27 44/52/27 100/53/27
f 100/53/28 14/54/28 64/55/28
f 15/39/29 101/56/29 46/57/29
f 65/58/30 64/59/30 101/56/30
f 101/60/31 14/61/31 45/62/31
f 46/63/32 45/62/32 7/64/32
f 2/65/33 102/66/33 50/14/33
f 10/67/34 102/66/34 36/68/34
f 102/69/35 23/70/35 69/71/35
f 50/72/36 69/71/36 17/15/36
f 10/73/37 103/74/37 66/75/37
f 1/76/38 103/74/38 37/77/38
f 54/78/39 67/79/39 103/80/39
f 103/80/40 23/81/40 66/82/40
f 67/83/41 68/84/41 23/85/41
f 19/86/42 104/87/42 67/83/42
f 55/88/43 45/89/43 104/90/43
f 104/90/44 14/91/44 68/92/44
f 17/93/45 105/94/45 51/19/45
f 69/95/46 68/96/46 105/94/46
f 68/97/47 44/98/47 105/99/47
f 51/100/48 44/98/48 6/20/48
f 38/101/49 54/102/49 1/76/49
f 11/103/50 106/104/50 38/101/50
f 70/105/51 73/106/51 106/107/51
f 106/107/52 19/108/52 54/78/52
f 39/109/53 70/105/53 11/103/53
f 3/110/54 107/111/54 39/109/54
f 56/112/55 71/113/55 107/111/55
f 107/111/56 24/114/56 70/105/56
f 71/113/57 72/115/57 24/114/57
f 20/116/58 108/117/58 71/113/58
f 57/118/59 47/33/59 108/117/59
f 108/117/60 15/39/60 72/115/60
f 73/119/61 55/88/61 19/86/61
f 24/114/62 109/120/62 73/119/62
f 72/115/63 46/57/63 109/121/63
f 109/120/64 7/64/64 55/88/64
f 41/122/65 56/123/65 3/110/65
f 12/124/66 110/125/66 41/122/66
f 74/126/67 77/127/67 110/128/67
f 110/128/68 20/129/68 56/112/68
f 12/130/69 111/131/69 74/132/69
f 40/133/70 53/3/70 111/131/70
f 111/134/71 18/10/71 75/135/71
f 74/136/72 75/135/72 25/137/72
f 25/138/73 112/139/73 76/140/73
f 75/141/74 52/25/74 112/139/74
f 112/142/75 5/30/75 48/143/75
f 76/144/76 48/143/76 16/145/76
f 77/146/77 57/147/77 20/116/77
f 25/148/78 113/149/78 77/146/78
f 76/150/79 49/151/79 113/152/79
f 113/152/80 8/31/80 57/118/80
f 1/153/81 114/154/81 87/155/81
f 37/156/82 86/157/82 114/154/82
f 114/158/83 31/159/83 81/160/83
f 87/161/84 81/162/84 26/163/84
f 84/164/85 78/165/85 29/166/85
f 85/167/86 84/168/86 33/169/86
f 83/170/87 85/167/87 28/171/87
f 32/172/88 115/173/88 83/174/88
f 81/162/89 82/175/89 26/163/89
f 80/176/90 81/160/90 31/159/90
f 79/177/91 80/178/91 27/179/91
f 30/180/92 115/181/92 79/177/92
f 2/182/93 116/183/93 89/184/93
f 35/13/94 88/185/94 116/183/94
f 116/186/95 30/180/95 79/177/95
f 116/186/96 27/179/96 89/187/96
f 4/188/97 117/189/97 91/190/97
f 40/191/98 90/192/98 117/189/98
f 117/193/99 33/169/99 84/168/99
f 91/194/100 84/164/100 29/166/100
f 38/195/101 92/196/101 11/103/101
f 1/153/102 118/197/102 38/195/102
f 118/198/103 26/163/103 82/175/103
f 118/199/104 32/172/104 92/200/104
f 36/201/105 86/202/105 10/203/105
f 2/182/106 119/204/106 36/201/106
f 89/205/107 80/178/107 119/206/107
f 119/207/108 31/159/108 86/208/108
f 9/11/109 120/209/109 88/185/109
f 34/210/110 91/190/110 120/209/110
f 120/211/111 29/166/111 78/165/111
f 88/212/112 78/213/112 30/180/112
f 41/214/113 90/215/113 12/216/113
f 3/217/114 121/218/114 41/214/114
f 93/219/115 85/167/115 121/220/115
f 121/220/116 33/169/116 90/221/116
f 39/109/117 93/222/117 3/217/117
f 11/103/118 122/223/118 39/109/118
f 92/224/119 83/174/119 122/225/119
f 122/226/120 28/171/120 93/227/120
f 4/1/121 34/4/121 94/2/121
f 34/4/122 9/11/122 58/5/122
f 94/6/123 58/5/123 21/7/123
f 53/9/124 94/6/124 61/8/124
f 9/11/125 35/13/125 95/12/125
f 35/13/126 2/65/126 50/14/126
f 95/12/127 50/72/127 17/15/127
f 58/5/128 95/12/128 59/16/128
f 21/7/129 59/16/129 96/17/129
f 59/16/130 17/93/130 51/19/130
f 96/17/131 51/100/131 6/20/131
f 60/18/132 96/17/132 43/21/132
f 18/23/133 61/26/133 97/24/133
f 61/26/134 21/7/134 60/18/134
f 97/24/135 60/18/135 13/27/135
f 52/29/136 97/24/136 42/28/136
f 8/31/137 49/34/137 98/32/137
f 49/34/138 16/228/138 62/35/138
f 98/36/139 62/229/139 22/37/139
f 47/33/140 98/36/140 65/38/140
f 48/40/141 99/43/141 62/41/141
f 5/30/142 42/28/142 99/43/142
f 42/28/143 13/27/143 63/44/143
f 99/45/144 63/44/144 22/46/144
f 63/48/145 100/51/145 64/49/145
f 13/22/146 43/21/146 100/51/146
f 43/21/147 6/20/147 44/52/147
f 100/53/148 44/52/148 14/54/148
f 15/39/149 65/58/149 101/56/149
f 65/58/150 22/230/150 64/59/150
f 101/60/151 64/231/151 14/61/151
f 46/63/152 101/60/152 45/62/152
f 2/65/153 36/68/153 102/66/153
f 10/67/154 66/232/154 102/66/154
f 102/69/155 66/233/155 23/70/155
f 50/72/156 102/69/156 69/71/156
f 10/73/157 37/77/157 103/74/157
f 1/76/158 54/102/158 103/74/158
f 54/78/159 19/108/159 67/79/159
f 103/80/160 67/79/160 23/81/160
f 67/83/161 104/87/161 68/84/161
f 19/86/162 55/88/162 104/87/162
f 55/88/163 7/64/163 45/89/163
f 104/90/164 45/89/164 14/91/164
f 17/93/165 69/95/165 105/94/165
f 69/95/166 23/234/166 68/96/166
f 68/97/167 14/235/167 44/98/167
f 51/100/168 105/99/168 44/98/168
f 38/101/169 106/104/169 54/102/169
f 11/103/170 70/105/170 106/104/170
f 70/105/171 24/114/171 73/106/171
f 106/107/172 73/106/172 19/108/172
f 39/109/173 107/111/173 70/105/173
f 3/110/174 56/123/174 107/111/174
f 56/112/175 20/129/175 71/113/175
f 107/111/176 71/113/176 24/114/176
f 71/113/177 108/117/177 72/115/177
f 20/116/178 57/147/178 108/117/178
f 57/118/179 8/31/179 47/33/179
f 108/117/180 47/33/180 15/39/180
f 73/119/181 109/120/181 55/88/181
f 24/114/182 72/115/182 109/120/182
f 72/115/183 15/39/183 46/57/183
f 109/120/184 46/63/184 7/64/184
f 41/122/185 110/125/185 56/123/185
f 12/124/186 74/236/186 110/125/186
f 74/126/187 25/237/187 77/127/187
f 110/128/188 77/127/188 20/129/188
f 12/130/189 40/133/189 111/131/189
f 40/133/190 4/1/190 53/3/190
f 111/134/191 53/9/191 18/10/191
f 74/136/192 111/134/192 75/135/192
f 25/138/193 75/141/193 112/139/193
f 75/141/194 18/23/194 52/25/194
f 112/142/195 52/29/195 5/30/195
f 76/144/196 112/142/196 48/143/196
f 77/146/197 113/149/197 57/147/197
f 25/148/198 76/238/198 113/149/198
f 76/150/199 16/239/199 49/151/199
f 113/152/200 49/151/200 8/31/200
f 1/153/201 37/156/201 114/154/201
f 37/156/202 10/240/202 86/157/202
f 114/158/203 86/241/203 31/159/203
f 87/161/204 114/242/204 81/162/204
f 84/164/205 115/243/205 78/165/205
f 85/167/206 115/244/206 84/168/206
f 83/170/207 115/245/207 85/167/207
f 32/172/208 82/246/208 115/173/208
f 81/162/209 115/247/209 82/175/209
f 80/176/210 115/248/210 81/160/210
f 79/177/211 115/249/211 80/178/211
f 30/180/212 78/213/212 115/181/212
f 2/182/213 35/13/213 116/183/213
f 35/13/214 9/11/214 88/185/214
f 116/186/215 88/250/215 30/180/215
f 116/186/216 79/177/216 27/179/216
f 4/188/217 40/191/217 117/189/217
f 40/191/218 12/251/218 90/192/218
f 117/193/219 90/252/219 33/169/219
f 91/194/220 117/253/220 84/164/220
f 38/195/221 118/197/221 92/196/221
f 1/153/222 87/155/222 118/197/222
f 118/198/223 87/254/223 26/163/223
f 118/199/224 82/246/224 32/172/224
f 36/201/225 119/204/225 86/202/225
f 2/182/226 89/184/226 119/204/226
f 89/205/227 27/179/227 80/178/227
f 119/207/228 80/176/228 31/159/228
f 9/11/229 34/210/229 120/209/229
f 34/210/230 4/188/230 91/190/230
f 120/211/231 91/255/231 29/166/231
f 88/212/232 120/256/232 78/213/232
f 41/214/233 121/218/233 90/215/233
f 3/217/234 93/222/234 121/218/234
f 93/219/235 28/171/235 85/167/235
f 121/220/236 85/167/236 33/169/236
f 39/109/237 122/223/237 93/222/237
f 11/103/238 92/196/238 122/223/238
f 92/224/239 32/172/239 83/174/239
f 122/226/240 83/170/240 28/171/240
