# Blender v2.82 (sub 7) OBJ File: 'cachalotbalaine_backup4.blend'
# www.blender.org
mtllib baleine_queue1.mtl
v 1.998910 1.041359 -0.570922
v 2.002446 -0.511611 -0.564771
v 2.025511 1.034390 0.580040
v 2.007528 -0.508702 0.588900
v 1.999576 0.588658 -0.857665
v 2.058104 0.569653 0.866432
v 2.000986 -0.030813 -0.855212
v 3.161021 0.941518 0.471537
v 3.159846 0.937821 -0.461350
v 3.162705 -0.317453 -0.456379
v 3.163879 -0.313756 0.476509
v 3.162145 0.577446 0.706205
v 3.160384 0.571900 -0.693127
v 3.163285 0.076724 0.708188
v 0.657610 1.289603 -0.925956
v 0.669507 0.565573 1.408007
v 0.658685 0.557833 -1.389463
v 0.663326 -1.220699 -0.916014
v 0.665674 -1.213305 0.949579
v 2.046438 -0.043816 0.870532
v 3.161524 0.071178 -0.691144
v 0.659958 1.296997 0.939637
v 0.660965 -0.443512 -1.385497
v 2.001674 -0.313008 -0.818027
v 2.023921 -0.315686 0.838494
v 1.999491 1.107630 0.005889
v 2.003332 -0.579004 0.012569
v 1.367743 1.147771 -0.719511
v 1.383617 1.147078 0.730767
v 2.579985 0.977955 -0.495509
v 2.583057 -0.370780 -0.490167
v 2.584751 -0.367006 0.512123
v 1.999013 0.855947 -0.822657
v 2.047373 0.841282 0.830576
v 1.427671 0.560978 1.090703
v 1.368580 0.578212 -1.080273
v 2.000275 0.281771 -0.856450
v 2.058802 0.262766 0.867647
v 1.370354 -0.201165 -1.077186
v 1.410154 -0.209544 1.096219
v 3.805302 0.897451 -0.430971
v 3.807971 -0.274313 -0.426330
v 2.602949 0.581341 0.756395
v 2.580563 0.584789 -0.744542
v 2.581788 0.046787 -0.742411
v 2.600528 0.045012 0.758985
v 3.162709 0.329387 0.707187
v 3.162080 -0.156922 -0.661087
v 3.160948 0.323842 -0.692144
v 3.161616 0.793266 0.676197
v 3.163768 -0.151607 0.679939
v 3.163419 -0.371928 0.010288
v 3.159928 0.787951 -0.664829
v 3.160315 0.991388 0.004889
v -0.126178 -1.696013 -1.149793
v -0.133345 1.451159 -1.162258
v -0.130401 1.460429 1.176641
v -0.131997 0.533737 -1.743358
v 1.372192 -0.806073 -0.711773
v 1.374020 -0.800318 0.740274
v 0.670042 0.069778 1.410047
v 0.662078 -0.899667 -1.325390
v 0.659815 0.061765 -1.387499
v 0.664180 0.999132 1.348535
v 0.665453 -0.889039 1.356400
v 0.658549 1.396726 0.006431
v 0.664757 -1.329637 0.017229
v 0.657775 0.989893 -1.332874
v 3.806398 0.900902 0.439854
v 3.797247 0.561676 0.680500
v 3.798313 0.093355 0.682355
v 2.587820 0.978910 0.506009
v 3.809065 -0.270862 0.444495
v -0.123235 -1.686743 1.189105
v -0.127581 0.547642 1.764990
v -0.124722 -0.707746 1.769961
v -0.129138 -0.721651 -1.738386
v 3.795548 0.556328 -0.668896
v 3.796615 0.088007 -0.667041
v 1.367871 0.914497 -1.036228
v 1.373305 -0.890863 0.014598
v 1.368473 1.231148 0.006194
v 1.382660 -0.551977 1.055805
v 1.411799 0.903812 1.045890
v 1.369459 0.192107 -1.078744
v 1.371220 -0.556204 -1.030403
v 1.428549 0.174873 1.092232
v 2.603475 0.314851 0.757461
v 2.582386 -0.198296 -0.710117
v 2.581170 0.318262 -0.743486
v 2.598533 0.814996 0.724638
v 2.591856 -0.196100 0.729790
v 2.580074 0.816926 -0.714137
v 2.580490 1.035510 0.005444
v -0.126165 -0.074280 1.767453
v -0.127743 -1.293534 -1.663029
v -0.128906 1.088738 1.689754
v -0.132168 1.585460 0.006678
v -0.124385 -1.832588 0.020215
v -0.133138 1.075412 -1.672411
v 3.775062 0.329664 0.693041
v 3.814912 0.748312 0.633532
v 3.808638 -0.325164 0.009291
v 3.805740 0.947454 0.004251
v 1.371221 -0.556204 -1.030403
v 2.583825 -0.429310 0.011245
v -0.130580 -0.088184 -1.740894
v -0.123512 -1.280209 1.699137
v 3.773334 0.324224 -0.679542
v 3.808963 -0.119500 0.634392
v 3.813326 0.743320 -0.625871
v 3.806815 -0.124569 -0.621215
v -2.316423 1.446200 -1.159490
v -2.313479 1.455469 1.179408
v -2.311984 1.083778 1.692522
v -2.315246 1.580500 0.009445
v -2.315075 0.528777 -1.740590
v -2.313658 -0.093145 -1.738127
v -2.312217 -0.726611 -1.735618
v -2.306313 -1.691703 1.191872
v -2.306590 -1.285169 1.701904
v -2.307801 -0.712706 1.772729
v -2.309243 -0.079240 1.770220
v -2.310660 0.542682 1.767757
v -2.316216 1.070452 -1.669644
v -2.307463 -1.837548 0.022982
v 1.998910 1.041359 -0.570922
v 0.664487 -0.432421 1.412892
v 3.809065 -0.270862 0.444495
v 1.371220 -0.556204 -1.030403
v 1.371221 -0.556204 -1.030403
v -2.310821 -1.298494 -1.660262
v -2.309257 -1.700973 -1.147026
v -2.307463 -1.837548 0.022982
v 3.797247 0.561676 0.680500
v -2.307463 -1.837548 0.022982
vt 0.531700 0.268220
vt 0.590063 0.218790
vt 0.603268 0.268220
vt 0.780525 0.572548
vt 0.798184 0.611496
vt 0.774292 0.612752
vt 0.948759 0.572244
vt 0.967080 0.612882
vt 0.946450 0.612882
vt 0.461373 0.265181
vt 0.413704 0.214589
vt 0.470854 0.214589
vt 0.295241 0.178919
vt 0.332860 0.136219
vt 0.339723 0.178919
vt 0.038206 0.476658
vt 0.096569 0.526088
vt 0.025001 0.526088
vt 0.534097 0.174464
vt 0.570130 0.133717
vt 0.578465 0.173541
vt 0.058018 0.393230
vt 0.094171 0.432332
vt 0.049740 0.432332
vt 0.291425 0.623167
vt 0.311947 0.580308
vt 0.315852 0.623539
vt 0.947747 0.174336
vt 0.971046 0.223367
vt 0.944428 0.223624
vt 0.697319 0.698799
vt 0.679285 0.739879
vt 0.673051 0.699361
vt 0.865163 0.611984
vt 0.888068 0.658851
vt 0.857896 0.659164
vt 0.870054 0.571231
vt 0.888647 0.611741
vt 0.784169 0.135266
vt 0.801090 0.174737
vt 0.777246 0.176656
vt 0.450119 0.628053
vt 0.476739 0.678191
vt 0.445432 0.678770
vt 0.456634 0.583942
vt 0.474543 0.628654
vt 0.891688 0.211147
vt 0.867588 0.260991
vt 0.861532 0.210926
vt 0.891072 0.261135
vt 0.872649 0.301723
vt 0.891316 0.301838
vt 0.875560 0.335547
vt 0.580199 0.765228
vt 0.563154 0.798208
vt 0.563847 0.763792
vt 0.891769 0.335652
vt 0.876169 0.369706
vt 0.460799 0.546301
vt 0.476834 0.585271
vt 0.479843 0.510800
vt 0.478343 0.547455
vt 0.785878 0.099011
vt 0.803121 0.133741
vt 0.871793 0.535209
vt 0.888720 0.571037
vt 0.292743 0.579568
vt 0.309949 0.543910
vt 0.293113 0.543654
vt 0.309289 0.508476
vt 0.704060 0.343664
vt 0.687655 0.376386
vt 0.689451 0.341409
vt 0.782535 0.536572
vt 0.799516 0.571550
vt 0.949345 0.536246
vt 0.962154 0.500834
vt 0.963585 0.536246
vt 0.062170 0.357623
vt 0.093334 0.393230
vt 0.479267 0.735010
vt 0.440018 0.735736
vt 0.288399 0.286313
vt 0.349204 0.229511
vt 0.360048 0.286313
vt 0.764903 0.658838
vt 0.792547 0.708297
vt 0.754062 0.710320
vt 0.095292 0.476658
vt 0.891257 0.369799
vt 0.875874 0.406961
vt 0.951650 0.064842
vt 0.965765 0.026190
vt 0.964904 0.064854
vt 0.065586 0.282907
vt 0.092537 0.322255
vt 0.063991 0.322255
vt 0.328071 0.864942
vt 0.288399 0.732155
vt 0.328071 0.732155
vt 0.653269 0.156825
vt 0.704060 0.029218
vt 0.688101 0.161042
vt 0.660079 0.466494
vt 0.691757 0.601082
vt 0.653269 0.599106
vt 0.803121 0.407909
vt 0.754062 0.278642
vt 0.792468 0.275551
vt 0.603268 0.401007
vt 0.531700 0.401007
vt 0.535632 0.064386
vt 0.562527 0.025001
vt 0.564178 0.064346
vt 0.575651 0.836498
vt 0.578480 0.799349
vt 0.326002 0.025001
vt 0.298995 0.064348
vt 0.299326 0.025001
vt 0.225199 0.791754
vt 0.146583 0.776487
vt 0.228563 0.780490
vt 0.186417 0.802153
vt 0.160108 0.797928
vt 0.213013 0.800512
vt 0.146570 0.762290
vt 0.229959 0.766362
vt 0.229959 0.751904
vt 0.227626 0.738823
vt 0.147979 0.747901
vt 0.151344 0.735094
vt 0.941770 0.409141
vt 0.974999 0.276354
vt 0.974999 0.409141
vt 0.941771 0.276354
vt 0.288399 0.419099
vt 0.181386 0.538514
vt 0.160737 0.487153
vt 0.188507 0.483689
vt 0.965155 0.572244
vt 0.554129 0.687392
vt 0.574803 0.639935
vt 0.577358 0.690299
vt 0.703617 0.308866
vt 0.579598 0.731284
vt 0.561062 0.729103
vt 0.687240 0.305561
vt 0.700345 0.266710
vt 0.695420 0.215841
vt 0.679711 0.262596
vt 0.289891 0.674697
vt 0.890950 0.158018
vt 0.853122 0.157784
vt 0.853941 0.025001
vt 0.891769 0.025234
vt 0.321535 0.674697
vt 0.410050 0.157787
vt 0.481699 0.157787
vt 0.410050 0.025001
vt 0.481699 0.025001
vt 0.698566 0.739466
vt 0.681820 0.773960
vt 0.534927 0.135363
vt 0.566018 0.099300
vt 0.948072 0.462169
vt 0.959734 0.461001
vt 0.795335 0.461001
vt 0.782033 0.501135
vt 0.780216 0.461270
vt 0.799029 0.535705
vt 0.695167 0.848437
vt 0.681693 0.808361
vt 0.697047 0.809102
vt 0.949825 0.133395
vt 0.968780 0.173426
vt 0.197821 0.392921
vt 0.182101 0.358496
vt 0.197021 0.356635
vt 0.172943 0.437455
vt 0.194558 0.434759
vt 0.180641 0.395064
vt 0.950635 0.099229
vt 0.966492 0.132787
vt 0.964978 0.099004
vt 0.698453 0.774128
vt 0.092841 0.357623
vt 0.535377 0.099755
vt 0.664131 0.650773
vt 0.942869 0.659859
vt 0.971950 0.712407
vt 0.938721 0.712407
vt 0.969374 0.659859
vt 0.971950 0.845193
vt 0.766504 0.224774
vt 0.887344 0.711557
vt 0.797138 0.222309
vt 0.850893 0.844728
vt 0.888720 0.844336
vt 0.761030 0.842923
vt 0.532977 0.218790
vt 0.197821 0.670280
vt 0.146570 0.542857
vt 0.481699 0.866382
vt 0.475360 0.627271
vt 0.179722 0.323100
vt 0.193609 0.321368
vt 0.176384 0.283902
vt 0.189588 0.282907
vt 0.463515 0.509727
vt 0.481699 0.470161
vt 0.701556 0.377996
vt 0.684631 0.415660
vt 0.294044 0.469246
vt 0.293466 0.508632
vt 0.447765 0.419070
vt 0.420717 0.379751
vt 0.449295 0.379721
vt 0.190203 0.724623
vt 0.454470 0.308036
vt 0.416891 0.265181
vt 0.292053 0.229511
vt 0.667637 0.212477
vt 0.544375 0.637224
vt 0.570120 0.586336
vt 0.580199 0.453933
vt 0.531700 0.583411
vt 0.541779 0.451008
vt 0.025001 0.658874
vt 0.131699 0.232906
vt 0.025001 0.126378
vt 0.131699 0.025001
vt 0.795600 0.657225
vt 0.802338 0.097686
vt 0.784425 0.063609
vt 0.799744 0.062377
vt 0.886760 0.499648
vt 0.888004 0.535041
vt 0.871222 0.462551
vt 0.871673 0.499805
vt 0.796690 0.025245
vt 0.694872 0.652151
vt 0.297505 0.136219
vt 0.329292 0.099772
vt 0.450972 0.344321
vt 0.419154 0.307881
vt 0.420271 0.344327
vt 0.298587 0.099772
vt 0.327573 0.064348
vt 0.948900 0.500834
vt 0.889993 0.408452
vt 0.954070 0.025001
vt 0.092232 0.282907
vt 0.288399 0.864942
vt 0.669229 0.025001
vt 0.698566 0.468470
vt 0.764714 0.411000
vt 0.535881 0.025038
vt 0.561197 0.836830
vt 0.148686 0.788018
vt 0.360048 0.419099
vt 0.797383 0.500328
vt 0.680162 0.848247
vt 0.938721 0.845193
vt 0.849517 0.711949
vt 0.799516 0.840901
vt 0.163005 0.674622
vt 0.442449 0.867109
vt 0.466276 0.469099
vt 0.697893 0.416493
vt 0.308814 0.469101
vt 0.421088 0.419098
vt 0.163594 0.726526
vt 0.216500 0.729109
vt 0.096569 0.658874
vt 0.202832 0.032888
vt 0.238398 0.088549
vt 0.233952 0.055619
vt 0.238398 0.126378
vt 0.238398 0.164909
vt 0.233952 0.199712
vt 0.202832 0.224317
vt 0.060567 0.224317
vt 0.025001 0.164909
vt 0.029446 0.199712
vt 0.025001 0.088549
vt 0.029446 0.055619
vt 0.060567 0.032888
vt 0.885334 0.461001
vt 0.782235 0.025001
vn -0.2310 -0.9675 -0.1030
vn -0.2655 -0.7763 0.5717
vn -0.3283 -0.1233 0.9365
vn -0.5239 0.8453 -0.1050
vn -0.4409 0.8914 0.1047
vn -0.2307 -0.9666 0.1113
vn -0.1966 -0.9744 -0.1089
vn -0.1908 -0.9752 0.1122
vn -0.4547 0.7059 -0.5431
vn -0.3862 -0.1300 -0.9132
vn -0.2703 -0.7737 -0.5731
vn -0.3994 0.0027 0.9168
vn -0.3327 0.0030 0.9430
vn -0.5378 0.6626 0.5213
vn -0.4553 0.6999 0.5503
vn -0.3859 -0.0042 -0.9225
vn -0.3351 -0.0045 -0.9422
vn -0.1979 -0.0043 -0.9802
vn -0.0896 -0.0046 -0.9960
vn -0.0894 -0.0042 -0.9960
vn -0.2608 0.7593 0.5962
vn -0.1077 0.7822 0.6137
vn -0.1911 0.0035 0.9816
vn -0.2662 0.7709 -0.5787
vn -0.1097 0.7835 -0.6116
vn -0.0957 0.1230 -0.9878
vn -0.1626 -0.7945 0.5851
vn -0.0904 -0.1295 0.9874
vn -0.1223 -0.9860 0.1134
vn -0.5487 0.6571 0.5169
vn -0.5346 0.8393 0.0988
vn -0.3233 -0.7620 0.5611
vn -0.2257 -0.9678 0.1114
vn -0.0231 -0.0040 -0.9997
vn -0.0435 -0.1377 -0.9895
vn -0.0674 -0.9912 0.1139
vn -0.0026 0.7820 -0.6233
vn -0.0015 0.1228 -0.9924
vn 0.0011 -0.8098 -0.5866
vn 0.0013 0.0040 1.0000
vn 0.0021 -0.9943 -0.1063
vn -0.0676 -0.9921 -0.1059
vn -0.0716 0.9907 0.1158
vn -0.9955 0.0944 0.0009
vn -1.0000 -0.0023 0.0013
vn -0.9955 0.0952 0.0009
vn -0.9952 -0.0980 0.0016
vn -0.9989 -0.0475 0.0019
vn -0.0009 -0.1377 -0.9905
vn -0.4042 -0.1292 -0.9055
vn -0.0021 0.9933 0.1159
vn -0.4389 0.1163 0.8910
vn -0.1904 -0.1279 0.9733
vn -0.3875 0.0090 -0.9218
vn -0.2150 0.1250 -0.9686
vn -0.1980 -0.0034 -0.9802
vn -0.3357 0.0063 -0.9419
vn -0.3629 0.1386 -0.9214
vn 0.4221 -0.1396 0.8957
vn -0.5318 0.6725 -0.5147
vn -0.4088 -0.0045 -0.9126
vn -0.0013 -0.0040 -1.0000
vn -0.5500 0.6530 -0.5208
vn -0.5348 0.8385 -0.1041
vn -0.0024 0.9923 -0.1238
vn -0.1520 -0.7892 -0.5950
vn -0.1132 -0.9862 -0.1207
vn -0.9985 -0.0538 0.0015
vn -0.0729 -0.2171 0.9734
vn -0.0902 -0.7830 0.6155
vn -0.0903 -0.8019 0.5906
vn -0.0795 -0.8074 -0.5846
vn -0.3299 -0.1374 -0.9340
vn -0.2055 0.1274 0.9703
vn -0.4292 0.1170 0.8956
vn -0.3585 0.1211 0.9256
vn -0.1933 -0.1359 -0.9717
vn -0.0895 -0.1374 -0.9865
vn -0.0878 -0.8068 -0.5842
vn -0.0753 -0.9906 0.1139
vn -0.0755 -0.9915 -0.1058
vn -0.3250 -0.7663 -0.5542
vn -0.4025 -0.1197 0.9075
vn -0.3935 -0.1202 0.9114
vn 0.0016 -0.1299 0.9915
vn -0.4086 0.0027 0.9127
vn 0.0026 -0.8052 0.5930
vn -0.2302 -0.9677 -0.1031
vn 0.0010 0.1306 0.9914
vn -0.0010 0.7869 0.6171
vn 0.0000 0.7071 -0.7071
vn -0.0928 0.1299 0.9872
vn -0.0426 0.2086 0.9771
vn -0.0774 0.7844 0.6154
vn -0.0759 0.1223 -0.9896
vn -0.0826 0.7793 -0.6212
vn -0.0719 0.9897 -0.1234
vn -1.0000 -0.0037 0.0017
vn -0.4373 0.8924 -0.1109
vn -0.5236 0.8461 0.0996
vn -0.4411 0.1093 -0.8908
vn -0.4094 -0.0006 -0.9123
vn 0.0024 -0.9935 0.1141
vn 1.0000 0.0023 -0.0013
vn -0.3161 -0.7639 0.5625
vn -0.0882 0.0037 0.9961
vn -0.0206 0.0039 0.9998
vn -0.3225 -0.7667 -0.5552
vn -0.2479 0.9622 0.1127
vn -0.2513 0.9610 -0.1154
vn -0.0983 0.9876 -0.1227
vn -0.0977 0.9885 0.1155
vn -0.1909 -0.9748 -0.1157
vn -0.4454 0.7222 -0.5292
vn -0.3831 -0.1371 -0.9135
vn -0.2704 -0.7738 -0.5728
vn -0.3861 -0.0045 -0.9225
vn -0.0894 -0.0041 -0.9960
vn -0.2729 0.7610 -0.5886
vn -0.1144 0.7768 -0.6192
vn -0.0960 0.1220 -0.9879
vn -0.0416 -0.0500 -0.9979
vn -0.0795 -0.2362 -0.9684
vn -0.0417 0.0410 -0.9983
vn -0.9987 -0.0503 0.0015
vn -0.4030 -0.1270 -0.9063
vn -0.3907 -0.0009 -0.9205
vn -0.2130 0.1317 -0.9681
vn -0.1972 -0.0013 -0.9804
vn -0.3362 0.0047 -0.9418
vn -0.3631 0.1379 -0.9215
vn 0.4278 -0.1101 0.8972
vn -0.5391 0.6585 -0.5252
vn -0.4087 -0.0042 -0.9127
vn -0.1557 -0.7940 -0.5877
vn -0.1225 -0.9864 -0.1097
vn -0.0410 -0.1298 0.9907
vn -0.0780 -0.8027 0.5912
vn -0.0940 -0.7840 -0.6136
vn -0.3304 -0.1363 -0.9340
vn -0.1933 -0.1357 -0.9717
vn -0.0901 -0.1358 -0.9866
vn -0.0821 -0.7993 -0.5953
vn -0.0713 -0.9913 -0.1110
vn -0.3247 -0.7661 -0.5547
vn -0.2259 -0.9682 -0.1076
vn 0.0000 0.5547 -0.8321
vn -0.0677 0.1302 0.9892
vn -0.0811 0.7901 0.6076
vn -0.0454 0.2174 -0.9750
vn -1.0000 -0.0067 0.0007
vn -0.4414 0.8911 -0.1055
vn -0.4109 -0.0045 -0.9117
vn -0.0391 -0.0420 0.9983
vn -0.0392 0.0490 0.9980
vn -0.3201 -0.7636 -0.5608
vn -0.2482 0.9614 -0.1191
vn -0.0980 0.9875 -0.1231
usemtl tail1.001
s off
f 98/1/1 22/2/1 57/3/1
f 33/4/2 28/5/2 80/6/2
f 5/7/3 80/8/3 36/9/3
f 60/10/4 67/11/4 19/12/4
f 81/13/5 2/14/5 59/15/5
f 15/16/6 98/17/6 56/18/6
f 82/19/7 3/20/7 29/21/7
f 1/22/8 82/23/8 28/24/8
f 83/25/9 4/26/9 60/27/9
f 84/28/10 16/29/10 64/30/10
f 29/31/11 34/32/11 84/33/11
f 85/34/12 17/35/12 63/36/12
f 37/37/13 36/38/13 85/34/13
f 7/39/13 85/40/13 39/41/13
f 59/42/14 62/43/14 18/44/14
f 2/45/15 86/46/15 59/42/15
f 16/47/16 87/48/16 61/49/16
f 35/50/17 38/51/17 87/48/17
f 6/52/18 88/53/18 38/51/18
f 88/54/19 14/55/19 46/56/19
f 43/57/20 47/58/20 88/53/20
f 31/59/21 24/60/21 2/45/21
f 31/59/22 48/61/22 89/62/22
f 45/63/23 37/64/23 7/39/23
f 90/65/23 5/66/23 37/37/23
f 25/67/24 32/68/24 4/26/24
f 92/69/25 11/70/25 32/68/25
f 46/71/26 51/72/26 92/73/26
f 93/74/27 1/75/27 33/4/27
f 44/76/28 53/77/28 93/78/28
f 30/79/29 26/80/29 1/22/29
f 18/44/30 96/81/30 55/82/30
f 99/83/31 18/84/31 55/85/31
f 68/86/32 56/87/32 100/88/32
f 28/24/33 66/89/33 15/16/33
f 12/90/34 101/91/34 47/58/34
f 50/92/35 70/93/35 12/94/35
f 41/95/36 54/96/36 9/97/36
f 120/98/37 108/99/37 74/100/37
f 108/101/38 122/102/38 76/103/38
f 115/104/39 57/105/39 97/106/39
f 118/107/40 77/108/40 107/109/40
f 98/1/41 114/110/41 116/111/41
f 54/112/42 69/113/42 8/114/42
f 101/115/34 14/55/34 47/116/34
f 42/117/43 52/118/43 103/119/43
f 102/120/44 78/121/44 70/122/44
f 104/123/45 41/124/45 69/125/45
f 70/122/46 109/126/46 101/127/46
f 109/126/47 71/128/47 101/127/47
f 110/129/48 79/130/48 112/131/48
f 115/132/49 75/133/49 124/134/49
f 16/29/50 97/135/50 64/30/50
f 55/85/51 134/136/51 99/83/51
f 77/137/52 62/138/52 23/139/52
f 5/7/53 93/78/53 33/140/53
f 40/141/54 61/142/54 87/143/54
f 92/73/55 20/144/55 46/71/55
f 46/56/56 38/145/56 88/54/56
f 87/143/57 20/146/57 40/141/57
f 25/147/58 40/148/58 20/144/58
f 128/149/59 83/150/59 40/148/59
f 60/27/60 65/151/60 83/25/60
f 75/152/61 61/49/61 95/153/61
f 75/152/62 123/154/62 124/155/62
f 19/156/63 108/99/63 65/151/63
f 19/12/64 99/157/64 74/158/64
f 74/158/65 134/159/65 120/160/65
f 3/161/66 91/162/66 34/32/66
f 26/163/67 72/164/67 3/20/67
f 41/124/68 102/120/68 69/125/68
f 53/77/69 78/165/69 111/166/69
f 41/167/70 53/168/70 111/169/70
f 53/168/71 30/170/71 93/74/71
f 69/171/72 50/172/72 8/173/72
f 34/174/73 35/175/73 84/28/73
f 7/176/74 89/177/74 45/178/74
f 131/179/75 23/139/75 62/138/75
f 39/180/76 24/181/76 7/176/76
f 91/182/77 6/183/77 34/174/77
f 43/184/78 50/92/78 12/94/78
f 50/172/79 72/185/79 8/173/79
f 94/186/80 9/97/80 54/96/80
f 8/114/81 94/187/81 54/112/81
f 57/105/82 64/188/82 97/106/82
f 17/189/83 100/190/83 58/191/83
f 36/9/84 68/192/84 17/189/84
f 125/193/85 58/191/85 100/190/85
f 23/194/86 107/109/86 77/108/86
f 58/195/86 63/36/86 17/35/86
f 63/196/12 39/41/12 85/40/12
f 118/197/40 58/195/40 117/198/40
f 56/87/87 125/199/87 100/88/87
f 66/200/88 29/21/88 22/2/88
f 119/201/89 96/202/89 77/137/89
f 132/203/90 55/82/90 96/81/90
f 86/46/91 131/204/91 62/43/91
f 48/205/92 45/178/92 89/177/92
f 21/206/93 112/207/93 79/208/93
f 10/209/94 112/210/94 48/61/94
f 14/211/95 110/212/95 51/72/95
f 110/213/96 11/70/96 51/214/96
f 129/215/97 52/216/97 11/217/97
f 103/218/98 110/129/98 112/131/98
f 4/219/99 81/220/99 60/10/99
f 59/15/100 67/221/100 81/13/100
f 76/103/101 65/222/101 108/101/101
f 128/223/102 95/224/102 61/142/102
f 123/225/62 76/226/62 122/227/62
f 98/17/103 113/228/103 56/18/103
f 136/229/104 118/230/104 116/231/104
f 15/232/105 80/6/105 28/5/105
f 90/233/106 21/234/106 49/235/106
f 90/65/106 13/236/106 44/237/106
f 109/238/107 13/236/107 49/239/107
f 21/234/107 109/240/107 49/235/107
f 22/241/108 84/33/108 64/188/108
f 27/242/109 31/243/109 2/14/109
f 32/244/110 27/245/110 4/219/110
f 11/217/111 106/246/111 32/244/111
f 106/247/112 10/248/112 31/243/112
f 98/1/1 66/200/1 22/2/1
f 33/4/2 1/75/2 28/5/2
f 5/7/3 33/140/3 80/8/3
f 60/10/4 81/220/4 67/11/4
f 81/13/5 27/242/5 2/14/5
f 15/16/6 66/89/6 98/17/6
f 82/19/113 26/163/113 3/20/113
f 1/22/8 26/80/8 82/23/8
f 83/25/114 25/67/114 4/26/114
f 84/28/115 35/175/115 16/29/115
f 29/31/116 3/161/116 34/32/116
f 85/34/12 36/38/12 17/35/12
f 37/37/13 5/66/13 36/38/13
f 7/39/13 37/64/13 85/40/13
f 59/42/14 86/46/14 62/43/14
f 2/45/15 24/60/15 86/46/15
f 16/47/117 35/50/117 87/48/117
f 35/50/17 6/52/17 38/51/17
f 6/52/18 43/57/18 88/53/18
f 88/54/118 47/116/118 14/55/118
f 43/57/118 12/90/118 47/58/118
f 31/59/21 89/62/21 24/60/21
f 31/59/22 10/209/22 48/61/22
f 45/63/23 90/233/23 37/64/23
f 90/65/23 44/237/23 5/66/23
f 25/67/119 92/69/119 32/68/119
f 92/69/120 51/214/120 11/70/120
f 46/71/121 14/211/121 51/72/121
f 93/74/27 30/170/27 1/75/27
f 44/76/28 13/249/28 53/77/28
f 30/79/29 94/186/29 26/80/29
f 18/44/30 62/43/30 96/81/30
f 99/83/31 67/221/31 18/84/31
f 68/86/32 15/232/32 56/87/32
f 28/24/33 82/23/33 66/89/33
f 12/90/122 70/250/122 101/91/122
f 50/92/123 102/251/123 70/93/123
f 41/95/36 104/252/36 54/96/36
f 120/98/37 121/253/37 108/99/37
f 108/101/38 121/254/38 122/102/38
f 115/104/39 114/255/39 57/105/39
f 118/107/40 119/256/40 77/108/40
f 98/1/41 57/3/41 114/110/41
f 54/112/42 104/257/42 69/113/42
f 101/115/124 71/258/124 14/55/124
f 42/117/43 10/248/43 52/118/43
f 102/120/44 111/259/44 78/121/44
f 70/122/46 78/121/46 109/126/46
f 109/126/47 79/130/47 71/128/47
f 110/129/125 71/128/125 79/130/125
f 115/132/49 97/135/49 75/133/49
f 16/29/126 75/133/126 97/135/126
f 55/85/51 133/260/51 134/136/51
f 77/137/52 96/202/52 62/138/52
f 5/7/53 44/76/53 93/78/53
f 40/141/127 128/223/127 61/142/127
f 92/73/128 25/147/128 20/144/128
f 46/56/129 20/146/129 38/145/129
f 87/143/130 38/145/130 20/146/130
f 25/147/131 83/150/131 40/148/131
f 128/149/132 65/222/132 83/150/132
f 60/27/133 19/156/133 65/151/133
f 75/152/134 16/47/134 61/49/134
f 75/152/62 95/153/62 123/154/62
f 19/156/63 74/100/63 108/99/63
f 19/12/64 67/11/64 99/157/64
f 74/158/65 99/157/65 134/159/65
f 3/161/135 72/185/135 91/162/135
f 26/163/136 94/187/136 72/164/136
f 41/124/68 111/259/68 102/120/68
f 53/77/137 13/249/137 78/165/137
f 41/167/138 9/261/138 53/168/138
f 53/168/71 9/261/71 30/170/71
f 69/171/139 102/262/139 50/172/139
f 34/174/140 6/183/140 35/175/140
f 7/176/74 24/181/74 89/177/74
f 131/179/75 39/180/75 23/139/75
f 39/180/76 131/179/76 24/181/76
f 91/182/141 43/184/141 6/183/141
f 43/184/142 91/182/142 50/92/142
f 50/172/143 91/162/143 72/185/143
f 94/186/80 30/79/80 9/97/80
f 8/114/144 72/164/144 94/187/144
f 57/105/145 22/241/145 64/188/145
f 17/189/83 68/192/83 100/190/83
f 36/9/84 80/8/84 68/192/84
f 125/193/85 117/263/85 58/191/85
f 23/194/86 63/196/86 107/109/86
f 58/195/86 107/264/86 63/36/86
f 63/196/12 23/194/12 39/41/12
f 118/197/40 107/264/40 58/195/40
f 56/87/87 113/265/87 125/199/87
f 66/200/146 82/19/146 29/21/146
f 119/201/89 132/266/89 96/202/89
f 132/203/90 133/267/90 55/82/90
f 86/46/147 24/60/147 131/204/147
f 48/205/92 21/206/92 45/178/92
f 21/206/148 48/205/148 112/207/148
f 10/209/149 42/268/149 112/210/149
f 14/211/150 71/269/150 110/212/150
f 110/213/96 129/270/96 11/70/96
f 129/215/97 103/271/97 52/216/97
f 112/131/151 42/272/151 103/218/151
f 103/218/45 129/273/45 110/129/45
f 4/219/152 27/245/152 81/220/152
f 59/15/100 18/84/100 67/221/100
f 76/103/101 128/149/101 65/222/101
f 128/223/153 76/226/153 95/224/153
f 123/225/62 95/224/62 76/226/62
f 98/17/103 116/274/103 113/228/103
f 116/231/104 114/275/104 124/276/104
f 114/275/104 115/277/104 124/276/104
f 124/276/104 123/278/104 116/231/104
f 123/278/104 122/279/104 136/229/104
f 122/279/104 121/280/104 120/281/104
f 136/229/104 122/279/104 120/281/104
f 136/229/104 133/282/104 119/283/104
f 133/282/104 132/284/104 119/283/104
f 119/283/104 118/230/104 136/229/104
f 118/230/104 117/285/104 116/231/104
f 117/285/104 125/286/104 113/287/104
f 116/231/104 117/285/104 113/287/104
f 116/231/104 123/278/104 136/229/104
f 15/232/105 68/86/105 80/6/105
f 90/233/106 45/63/106 21/234/106
f 90/65/106 49/239/106 13/236/106
f 109/238/154 78/288/154 13/236/154
f 21/234/155 79/289/155 109/240/155
f 22/241/156 29/31/156 84/33/156
f 27/242/109 106/247/109 31/243/109
f 32/244/157 106/246/157 27/245/157
f 11/217/158 52/216/158 106/246/158
f 106/247/112 52/118/112 10/248/112
l 105 131
l 129 73
l 86 130
l 70 135
l 134 126
l 134 136
