# Blender v2.82 (sub 7) OBJ File: 'cachalotbalaine_backup4.blend'
# www.blender.org
mtllib baleine_queue2.mtl
v 2.471085 -0.265911 -0.203266
v 2.426169 0.515496 0.240908
v 2.467228 -0.252369 0.263523
v 2.927874 0.332151 0.539563
v 2.944853 0.014641 0.548915
v 0.774318 0.558436 0.373200
v 0.789693 0.276051 0.767437
v 0.811795 -0.137291 0.779610
v 0.774639 0.543232 -0.401417
v 0.832088 -0.482375 -0.364913
v 0.828988 -0.463971 0.403311
v 1.686919 0.247130 1.746754
v 3.389942 0.322230 1.669711
v 3.399472 0.144015 1.674959
v 1.697658 0.046299 1.752668
v 2.430023 0.501955 -0.225881
v 2.936506 0.301846 -0.505083
v 2.953484 -0.015664 -0.495731
v 0.784736 0.251894 -0.805116
v 0.809202 -0.164171 -0.787504
v 1.715609 0.146396 -1.725638
v 3.417165 0.226652 -1.624971
v 3.426693 0.048437 -1.619722
v 1.726349 -0.054434 -1.719723
v 2.660634 -0.148319 0.341559
v 2.562590 0.522421 0.008227
v 2.604417 -0.259803 0.031265
v 1.754306 0.542299 0.323260
v 2.628988 0.443462 0.324130
v 1.950507 0.357234 0.745777
v 2.992894 0.309740 0.040244
v 3.252278 0.191354 0.557960
v 3.008765 0.012935 0.048985
v 1.974957 -0.100024 0.759244
v -0.019350 0.544905 -0.434182
v 0.041371 -0.581216 -0.399794
v 0.034458 -0.556925 0.437840
v -0.025725 0.568575 0.404692
v -0.019983 0.248003 0.644409
v 0.004070 -0.201827 0.657657
v 1.807168 -0.365468 -0.294545
v 1.801847 -0.346786 0.349445
v 0.509020 0.057995 0.850192
v 0.780342 0.444344 0.563314
v 0.834584 -0.520883 0.024216
v 0.775066 0.589688 -0.008817
v 2.589535 0.310820 1.795291
v 3.657617 0.249261 1.751689
v 2.601890 0.079766 1.802096
v 1.533810 0.141325 1.845697
v 1.262256 0.250385 1.333413
v 3.289160 0.329447 1.221385
v 3.301492 0.098821 1.228178
v 1.277037 -0.026043 1.341555
v 2.631786 -0.149127 0.318435
v 2.665801 -0.166466 -0.283999
v 1.759626 0.523617 -0.320730
v 2.634157 0.425314 -0.301428
v 1.962688 0.314465 -0.728511
v 2.993261 0.308447 -0.004298
v 3.261102 0.160375 -0.509928
v 3.009131 0.011643 0.004443
v 1.987139 -0.142793 -0.715044
v -0.025725 0.568575 0.404692
v -0.013317 0.215024 -0.662866
v 0.011675 -0.235888 -0.647457
v 0.505236 0.029417 -0.880004
v 0.820586 -0.327733 0.565887
v 0.777958 0.424981 -0.597790
v 0.822551 -0.351863 -0.567534
v 0.779435 0.441856 0.543221
v 2.618935 0.207598 -1.762877
v 3.686120 0.149181 -1.698152
v 2.631289 -0.023456 -1.756072
v 1.564103 0.034960 -1.820797
v 1.278395 0.180066 -1.333562
v 3.308998 0.259796 -1.179543
v 3.321330 0.029170 -1.172751
v 1.293903 -0.097199 -1.323748
v 2.905066 0.434707 0.017944
v 1.819826 -0.393274 0.028654
v 1.833905 -0.232105 0.516200
v 1.797421 0.450206 0.496105
v 3.030971 0.164436 0.050853
v 2.935205 -0.128938 0.034544
v 2.285687 0.337241 1.291586
v -0.029999 0.024309 0.661977
v -0.020674 0.440448 0.595500
v 0.024637 -0.406960 0.620458
v 0.040619 -0.619574 0.020518
v -0.024744 0.602797 -0.015483
v 2.705291 0.206571 1.982678
v 2.304194 -0.008862 1.301779
v 0.894946 0.093740 1.368963
v 3.677652 0.233811 1.214205
v 1.768404 0.568357 0.000333
v 2.905138 0.434455 0.009267
v 1.778684 0.442862 0.466009
v 1.842030 -0.260631 -0.467115
v 1.805546 0.421680 -0.487211
v 3.031438 0.162791 -0.005837
v 2.935275 -0.129190 0.025867
v 2.306825 0.263027 -1.266635
v -0.023015 -0.009472 -0.667291
v -0.013339 0.408383 -0.622024
v 0.033327 -0.440584 -0.593952
v 0.040619 -0.619574 0.020518
v -0.024745 0.602797 -0.015483
v 2.737719 0.092717 -1.941969
v 2.325332 -0.083076 -1.256442
v 0.905838 0.028139 -1.379396
v 3.697272 0.164923 -1.160418
v 0.777958 0.424981 -0.597790
vt 0.556166 0.016926
vt 0.558029 0.052725
vt 0.557150 0.052760
vt 0.090508 0.398810
vt 0.082791 0.431640
vt 0.054664 0.400654
vt 0.040504 0.407354
vt 0.053038 0.456945
vt 0.271719 0.130422
vt 0.172323 0.096902
vt 0.271633 0.091576
vt 0.171896 0.162650
vt 0.171119 0.129770
vt 0.103843 0.153152
vt 0.090469 0.129247
vt 0.104151 0.105517
vt 0.636507 0.484666
vt 0.602643 0.423916
vt 0.611309 0.401930
vt 0.662343 0.466139
vt 0.632340 0.368955
vt 0.652474 0.678411
vt 0.616993 0.774337
vt 0.630140 0.675619
vt 0.678995 0.682043
vt 0.636356 0.780859
vt 0.661779 0.799343
vt 0.610910 0.863518
vt 0.602643 0.841628
vt 0.555940 0.083625
vt 0.561684 0.098919
vt 0.557171 0.099099
vt 0.025667 0.411013
vt 0.018469 0.466766
vt 0.024654 0.116553
vt 0.052385 0.070787
vt 0.039726 0.120355
vt 0.082373 0.096275
vt 0.054405 0.127414
vt 0.631545 0.896444
vt 0.713672 0.839214
vt 0.696405 0.939596
vt 0.729989 0.736238
vt 0.766754 0.783651
vt 0.761293 0.875181
vt 0.740430 0.954331
vt 0.350461 0.043046
vt 0.295599 0.016926
vt 0.353469 0.020064
vt 0.351473 0.481917
vt 0.296888 0.508374
vt 0.268478 0.484700
vt 0.271043 0.457996
vt 0.352193 0.461808
vt 0.352959 0.438524
vt 0.271869 0.435534
vt 0.352782 0.130949
vt 0.271401 0.170042
vt 0.352699 0.088182
vt 0.352803 0.395803
vt 0.271750 0.396694
vt 0.271598 0.356634
vt 0.352045 0.352972
vt 0.782116 0.888387
vt 0.767444 0.481847
vt 0.782807 0.377205
vt 0.782807 0.496656
vt 0.782191 0.376359
vt 0.741233 0.311273
vt 0.748913 0.283117
vt 0.781484 0.889262
vt 0.730770 0.529375
vt 0.679549 0.583519
vt 0.714336 0.426293
vt 0.697221 0.325939
vt 0.761979 0.390374
vt 0.741403 0.697446
vt 0.742105 0.568342
vt 0.697414 0.615939
vt 0.781555 0.497871
vt 0.780820 0.767604
vt 0.629199 0.333316
vt 0.628306 0.932049
vt 0.691417 0.979687
vt 0.691466 0.979717
vt 0.745719 0.983074
vt 0.692367 0.285869
vt 0.555950 0.068361
vt 0.560463 0.068182
vt 0.040321 0.391417
vt 0.082038 0.366166
vt 0.054632 0.397790
vt 0.469618 0.315148
vt 0.422414 0.415030
vt 0.440531 0.311917
vt 0.448262 0.433554
vt 0.397241 0.497806
vt 0.016926 0.684010
vt 0.050839 0.744562
vt 0.031546 0.751209
vt 0.025112 0.662088
vt 0.076142 0.726019
vt 0.096848 0.844510
vt 0.069723 0.847919
vt 0.051630 0.187208
vt 0.024495 0.141086
vt 0.039615 0.137480
vt 0.025404 0.388100
vt 0.051712 0.341551
vt 0.560508 0.115142
vt 0.561497 0.151186
vt 0.559629 0.115177
vt 0.081946 0.162111
vt 0.054384 0.130612
vt 0.045674 0.629080
vt 0.127930 0.686175
vt 0.110521 0.585793
vt 0.175530 0.650176
vt 0.180994 0.741739
vt 0.145463 0.789552
vt 0.350693 0.309427
vt 0.297039 0.282582
vt 0.354713 0.287009
vt 0.271000 0.333410
vt 0.351147 0.329449
vt 0.350054 0.219523
vt 0.270508 0.194468
vt 0.350954 0.197991
vt 0.196362 0.636966
vt 0.196362 0.756539
vt 0.154559 0.570996
vt 0.195720 0.636062
vt 0.568172 0.523377
vt 0.527202 0.588481
vt 0.547954 0.509358
vt 0.568790 0.522532
vt 0.553421 0.417850
vt 0.568790 0.403034
vt 0.517954 0.370069
vt 0.500294 0.473429
vt 0.483178 0.573810
vt 0.418281 0.530782
vt 0.158189 0.828407
vt 0.115054 0.876552
vt 0.195184 0.757684
vt 0.157739 0.828679
vt 0.567481 0.401770
vt 0.530782 0.330434
vt 0.531146 0.330742
vt 0.488206 0.282582
vt 0.415138 0.566429
vt 0.478322 0.613891
vt 0.105531 0.545651
vt 0.042378 0.593451
vt 0.295957 0.248729
vt 0.267785 0.223674
vt 0.270686 0.070086
vt 0.388566 0.475820
vt 0.402593 0.408448
vt 0.267445 0.041246
vt 0.616697 0.491270
vt 0.650847 0.587370
vt 0.629471 0.590034
vt 0.352144 0.173713
vt 0.103782 0.374862
vt 0.171125 0.397883
vt 0.172527 0.430709
vt 0.171773 0.365034
vt 0.046593 0.850364
vt 0.451968 0.016926
vt 0.458175 0.140909
vt 0.387322 0.084366
vt 0.104329 0.422447
vt 0.561684 0.083397
vt 0.017809 0.060742
vt 0.354713 0.504447
vt 0.782116 0.768856
vt 0.748064 0.982542
vt 0.696735 0.649791
vt 0.741085 0.697198
vt 0.746578 0.282582
vt 0.016926 0.196803
vt 0.016926 0.332527
vt 0.268525 0.306143
vt 0.162165 0.542757
vt 0.534883 0.616644
vt 0.532547 0.617179
vt 0.159818 0.542227
vt 0.353469 0.242570
vt 0.351718 0.064236
vt 0.416174 0.309440
vt 0.514343 0.033518
vt 0.519795 0.054041
vt 0.494649 0.019846
vt 0.522087 0.077113
vt 0.522087 0.099881
vt 0.518655 0.119714
vt 0.500372 0.134162
vt 0.415394 0.138492
vt 0.389580 0.107036
vt 0.395287 0.126238
vt 0.387485 0.061061
vt 0.391265 0.039836
vt 0.409789 0.024086
vn 0.2487 0.9682 -0.0261
vn 0.2387 0.9527 0.1880
vn 0.3470 0.9378 0.0031
vn 0.1264 -0.9807 0.1491
vn 0.1283 -0.9876 -0.0900
vn 0.1675 -0.9834 -0.0696
vn 0.1579 -0.9760 0.1503
vn 0.2008 -0.7987 0.5673
vn 0.1966 -0.8836 0.4249
vn 0.0403 0.8573 0.5132
vn 0.0375 0.7719 0.6347
vn 0.0716 0.9483 0.3092
vn 0.0907 0.8881 0.4506
vn 0.9893 -0.1452 0.0124
vn 0.3988 0.8899 -0.2213
vn 0.9813 -0.1454 0.1260
vn 0.6901 -0.4180 0.5908
vn 0.3778 -0.8910 0.2517
vn 0.0078 1.0000 -0.0001
vn -0.0808 0.9930 0.0860
vn -0.0753 0.9924 0.0975
vn -0.0113 0.9998 0.0186
vn -0.3252 -0.0670 0.9433
vn -0.1465 0.5102 0.8475
vn 0.0377 0.2463 0.9685
vn 0.0311 0.8575 0.5136
vn 0.1232 -0.9875 -0.0985
vn 0.1213 -0.9814 0.1491
vn 0.0157 0.9965 0.0816
vn 0.0077 0.9906 -0.1369
vn -0.0880 0.8464 0.5252
vn -0.0387 -0.7323 0.6799
vn 0.1700 -0.8178 0.5498
vn 0.0591 0.8874 0.4572
vn 0.0345 -0.9854 0.1665
vn 0.1349 -0.9873 0.0840
vn 0.1145 -0.9877 0.1068
vn 0.0224 -0.9883 0.1510
vn -0.3438 0.8803 0.3270
vn -0.4368 -0.8149 0.3811
vn -0.2448 -0.8760 0.4155
vn -0.3540 0.8587 0.3705
vn 0.4958 -0.8546 -0.1544
vn 0.2300 0.9501 -0.2106
vn 0.2680 0.9633 -0.0177
vn 0.3384 -0.9408 0.0210
vn 0.8189 0.5738 -0.0099
vn 0.6408 0.5099 -0.5739
vn 0.1310 -0.7502 -0.6481
vn 0.1801 -0.9251 -0.3343
vn 0.0985 0.8606 -0.4997
vn 0.0772 0.9288 -0.3624
vn 0.0711 0.7668 -0.6379
vn 0.9832 -0.1520 -0.1011
vn 0.9609 0.2531 -0.1122
vn 0.9673 0.2535 0.0006
vn 0.3675 -0.9296 0.0300
vn 0.6996 -0.4512 -0.5541
vn 0.8867 -0.4619 0.0206
vn 0.0303 0.9967 -0.0759
vn 0.0122 0.9946 -0.1034
vn -0.0689 0.9845 -0.1614
vn -0.0411 0.9842 -0.1722
vn -0.3755 0.0345 -0.9262
vn 0.0256 0.2066 -0.9781
vn 0.0601 -0.2465 -0.9673
vn -0.1059 0.7251 -0.6805
vn 0.0670 0.8594 -0.5068
vn 0.1575 -0.8754 -0.4569
vn -0.0278 -0.7705 -0.6368
vn 0.0243 -0.9945 -0.1022
vn 0.0193 -0.9961 -0.0865
vn 0.1158 -0.9921 -0.0475
vn 0.1358 -0.9904 -0.0244
vn -0.5010 0.7654 -0.4039
vn -0.2957 0.8542 -0.4278
vn -0.2375 -0.8989 -0.3681
vn -0.4287 -0.8363 -0.3417
vn 0.4928 -0.8440 0.2118
vn 0.3382 -0.9402 0.0392
vn 0.2380 0.9712 -0.0145
vn 0.3963 0.9036 0.1625
vn -0.0965 -0.5484 -0.8306
vn 0.1166 -0.7583 0.6414
vn 0.3569 -0.9123 -0.2006
vn 0.1943 -0.8553 -0.4803
vn -0.0406 -0.7468 0.6638
vn 0.0365 -0.8868 0.4607
vn 0.1267 -0.7571 0.6410
vn 0.1258 -0.8589 -0.4964
vn 0.1278 -0.8311 -0.5413
vn 0.2422 0.9403 -0.2389
vn 0.0585 0.9911 -0.1198
vn 0.0206 0.9965 0.0816
vn 0.0294 0.9926 -0.1175
vn 0.0592 0.8556 -0.5142
vn 0.0010 0.8089 -0.5879
vn -0.9976 -0.0520 0.0462
vn 0.0498 0.9953 0.0825
vn 0.2620 0.9478 0.1818
vn 0.6315 0.5426 0.5539
vn 0.1263 -0.9807 0.1492
vn 0.1255 -0.9872 -0.0985
vn 0.1599 -0.9829 -0.0908
vn 0.1659 -0.9776 0.1293
vn 0.1859 -0.8259 0.5323
vn 0.1741 -0.9041 0.3903
vn 0.0256 0.8849 0.4651
vn -0.0575 0.9235 0.3792
vn 0.0972 0.9328 0.3471
vn 0.1078 0.8665 0.4873
vn 0.9591 0.2596 0.1132
vn 0.4948 -0.8521 -0.1707
vn 0.4620 -0.8847 0.0621
vn 0.3531 -0.8990 0.2590
vn 0.0295 0.9994 0.0185
vn -0.0675 0.9926 0.1014
vn -0.0805 0.9926 0.0906
vn 0.0110 0.9989 0.0458
vn -0.0956 -0.4661 0.8796
vn -0.3333 0.0886 0.9386
vn -0.1229 0.7630 0.6347
vn 0.0183 0.8303 0.5570
vn 0.1274 -0.9878 -0.0899
vn 0.0158 0.9966 0.0812
vn 0.0173 0.9929 -0.1175
vn -0.1168 0.7633 0.6354
vn -0.0012 -0.8181 0.5751
vn 0.1495 -0.8474 0.5095
vn 0.0824 0.8627 0.4990
vn 0.0224 -0.9881 0.1524
vn 0.1118 -0.9917 0.0642
vn 0.0927 -0.9925 0.0801
vn 0.0279 -0.9870 0.1583
vn -0.5166 0.7901 0.3299
vn -0.2511 -0.8886 0.3838
vn -0.2634 -0.8674 0.4221
vn -0.3356 0.8693 0.3630
vn 0.3288 -0.9320 -0.1528
vn 0.3993 0.8929 -0.2081
vn 0.2382 0.9705 -0.0379
vn 0.3669 -0.9294 0.0404
vn 0.3475 0.9363 -0.0517
vn 0.0417 -0.9116 -0.4089
vn 0.2032 -0.9067 -0.3697
vn 0.1163 0.8369 -0.5349
vn 0.1033 0.9111 -0.3990
vn -0.0211 0.9085 -0.4174
vn 0.4915 -0.8405 0.2280
vn 0.3955 0.9015 0.1759
vn 0.4625 -0.8866 -0.0031
vn 0.8867 -0.4619 0.0207
vn 0.0082 0.9983 -0.0577
vn -0.0105 0.9970 -0.0767
vn -0.0732 0.9850 -0.1560
vn -0.0706 0.9877 -0.1396
vn -0.1741 0.5036 -0.8462
vn -0.1484 0.7567 -0.6366
vn -0.0451 -0.7613 -0.6468
vn -0.0789 0.8145 -0.5748
vn 0.0910 0.8324 -0.5467
vn 0.1787 -0.8482 -0.4986
vn 0.0079 -0.8500 -0.5267
vn 0.0200 -0.9951 -0.0973
vn 0.0300 -0.9945 -0.1003
vn 0.0935 -0.9954 -0.0209
vn 0.1124 -0.9937 -0.0047
vn -0.3032 0.8645 -0.4008
vn -0.3335 0.8320 -0.4433
vn -0.2563 -0.8904 -0.3761
vn -0.2456 -0.9094 -0.3356
vn 0.3258 -0.9214 0.2120
vn 0.3671 -0.9300 0.0196
vn 0.2681 0.9628 -0.0337
vn 0.2270 0.9609 0.1589
vn -0.3614 -0.1362 -0.9224
vn 0.1195 -0.7641 0.6339
vn 0.3815 -0.9039 -0.1933
vn 0.2097 -0.8301 -0.5167
vn 0.0842 -0.1696 0.9819
vn 0.1025 -0.7406 0.6641
vn 0.1052 -0.8287 0.5497
vn 0.1385 -0.8296 -0.5409
vn 0.1099 -0.8028 -0.5860
vn 0.2654 0.9358 -0.2321
vn 0.0517 0.9889 -0.1392
vn 0.0206 0.9965 0.0813
vn 0.0225 0.9901 -0.1386
vn 0.0576 0.8584 -0.5097
vn 0.0231 0.8566 -0.5154
vn -0.9938 -0.1057 0.0333
vn -0.9879 -0.1496 0.0414
vn -0.9983 0.0473 0.0326
vn -0.9996 0.0038 0.0290
vn -0.9998 -0.0209 -0.0040
vn -0.9999 -0.0103 -0.0115
vn -0.9993 0.0078 -0.0377
vn -0.9981 0.0440 -0.0440
vn -0.9868 -0.1553 -0.0464
vn -0.9923 -0.1162 -0.0431
vn -0.9956 -0.0930 -0.0103
vn -0.9965 -0.0840 -0.0021
vn -0.9970 -0.0549 -0.0546
vn 0.0570 0.9964 0.0631
usemtl tail2.001
s off
f 26/1/1 80/2/1 97/3/1
f 26/4/2 29/5/2 80/6/2
f 31/7/3 29/5/3 4/8/3
f 45/9/4 42/10/4 11/11/4
f 45/9/5 41/12/5 81/13/5
f 81/13/6 1/14/6 27/15/6
f 81/13/7 3/16/7 42/10/7
f 82/17/8 3/18/8 25/19/8
f 34/20/9 25/19/9 5/21/9
f 44/22/10 28/23/10 6/24/10
f 7/25/11 83/26/11 44/22/11
f 30/27/12 29/28/12 83/26/12
f 83/26/13 2/29/13 28/23/13
f 101/30/14 33/31/14 62/32/14
f 84/33/15 4/8/15 32/34/15
f 84/35/16 5/36/16 33/37/16
f 33/37/17 25/38/17 85/39/17
f 27/15/18 25/38/18 3/16/18
f 4/40/19 86/41/19 52/42/19
f 30/27/20 51/43/20 86/41/20
f 86/41/21 12/44/21 47/45/21
f 52/42/22 47/45/22 13/46/22
f 40/47/23 43/48/23 87/49/23
f 39/50/24 43/51/24 7/52/24
f 39/50/25 44/53/25 88/54/25
f 38/55/26 44/53/26 6/56/26
f 90/57/27 10/58/27 45/9/27
f 90/57/28 11/11/28 37/59/28
f 91/60/29 6/56/29 46/61/29
f 91/60/30 9/62/30 35/63/30
f 12/44/31 92/64/31 47/45/31
f 15/65/32 92/66/32 50/67/32
f 92/68/33 14/69/33 48/70/33
f 92/71/34 13/46/34 47/45/34
f 34/20/35 54/72/35 8/73/35
f 5/21/36 93/74/36 34/20/36
f 53/75/37 49/76/37 93/74/37
f 93/74/38 15/65/38 54/72/38
f 7/25/39 94/77/39 51/43/39
f 8/73/40 94/78/40 43/79/40
f 54/72/41 50/80/41 94/78/41
f 51/43/42 50/81/42 12/44/42
f 32/82/43 53/75/43 5/21/43
f 32/83/44 52/42/44 95/84/44
f 95/85/45 13/46/45 48/86/45
f 95/87/46 14/69/46 53/75/46
f 60/88/47 80/2/47 31/89/47
f 60/90/48 58/91/48 97/92/48
f 20/93/49 99/94/49 70/95/49
f 63/96/50 56/97/50 99/94/50
f 16/98/51 100/99/51 57/100/51
f 58/101/52 59/102/52 100/99/52
f 100/99/53 19/103/53 69/104/53
f 18/105/54 101/106/54 62/107/54
f 101/108/55 17/109/55 60/90/55
f 31/89/56 101/30/56 60/88/56
f 85/110/57 27/111/57 102/112/57
f 56/113/58 62/107/58 102/114/58
f 62/32/59 85/110/59 102/112/59
f 17/115/60 103/116/60 59/102/60
f 77/117/61 72/118/61 103/116/61
f 103/116/62 21/119/62 76/120/62
f 59/102/63 76/120/63 19/103/63
f 65/121/64 67/122/64 104/123/64
f 69/124/65 65/121/65 105/125/65
f 66/126/66 70/127/66 106/128/66
f 21/119/67 109/129/67 75/130/67
f 22/131/68 109/132/68 72/118/68
f 109/133/69 23/134/69 74/135/69
f 109/136/70 24/137/70 75/138/70
f 79/139/71 63/96/71 20/93/71
f 24/137/72 110/140/72 79/139/72
f 74/135/73 78/141/73 110/140/73
f 110/140/74 18/142/74 63/96/74
f 19/103/75 111/143/75 67/144/75
f 76/120/76 75/145/76 111/146/76
f 75/147/77 79/139/77 111/148/77
f 111/149/78 20/93/78 67/150/78
f 78/141/79 61/151/79 18/142/79
f 23/134/80 112/152/80 78/141/80
f 112/153/81 22/131/81 77/117/81
f 61/154/82 77/117/82 17/115/82
f 66/126/83 67/155/83 20/156/83
f 68/157/84 37/59/84 11/11/84
f 27/15/85 56/113/85 102/114/85
f 99/94/86 1/158/86 41/159/86
f 40/47/87 68/157/87 8/160/87
f 8/73/88 82/17/88 34/20/88
f 42/161/89 68/162/89 11/163/89
f 41/159/90 70/95/90 99/94/90
f 36/164/91 70/127/91 10/58/91
f 58/91/92 26/4/92 97/92/92
f 16/165/93 96/166/93 26/4/93
f 28/167/94 46/61/94 6/56/94
f 46/61/95 57/168/95 9/62/95
f 57/100/96 69/104/96 9/169/96
f 35/63/97 69/124/97 105/125/97
f 107/170/98 108/171/98 104/172/98
f 2/173/99 96/166/99 28/167/99
f 26/4/100 2/173/100 29/5/100
f 31/7/101 80/6/101 29/5/101
f 45/9/102 81/13/102 42/10/102
f 45/9/103 10/58/103 41/12/103
f 81/13/104 41/12/104 1/14/104
f 81/13/105 27/15/105 3/16/105
f 82/17/106 42/161/106 3/18/106
f 34/20/107 82/17/107 25/19/107
f 44/22/108 83/26/108 28/23/108
f 7/25/109 30/27/109 83/26/109
f 30/27/110 4/40/110 29/28/110
f 83/26/111 29/28/111 2/29/111
f 101/30/14 84/174/14 33/31/14
f 84/33/112 31/7/112 4/8/112
f 84/35/113 32/175/113 5/36/113
f 33/37/114 5/36/114 25/38/114
f 27/15/115 85/39/115 25/38/115
f 4/40/116 30/27/116 86/41/116
f 30/27/117 7/25/117 51/43/117
f 86/41/118 51/43/118 12/44/118
f 52/42/119 86/41/119 47/45/119
f 40/47/120 8/160/120 43/48/120
f 39/50/121 87/176/121 43/51/121
f 39/50/122 7/52/122 44/53/122
f 38/55/123 88/54/123 44/53/123
f 90/57/124 36/164/124 10/58/124
f 90/57/28 45/9/28 11/11/28
f 91/60/125 38/55/125 6/56/125
f 91/60/126 46/61/126 9/62/126
f 12/44/127 50/177/127 92/64/127
f 15/65/128 49/76/128 92/66/128
f 92/68/129 49/76/129 14/69/129
f 92/71/130 48/178/130 13/46/130
f 34/20/131 93/74/131 54/72/131
f 5/21/132 53/75/132 93/74/132
f 53/75/133 14/69/133 49/76/133
f 93/74/134 49/76/134 15/65/134
f 7/25/135 43/179/135 94/77/135
f 8/73/136 54/72/136 94/78/136
f 54/72/137 15/65/137 50/80/137
f 51/43/138 94/180/138 50/81/138
f 32/82/139 95/87/139 53/75/139
f 32/83/140 4/40/140 52/42/140
f 95/85/141 52/42/141 13/46/141
f 95/87/142 48/181/142 14/69/142
f 60/88/47 97/3/47 80/2/47
f 60/90/143 17/109/143 58/91/143
f 20/93/144 63/96/144 99/94/144
f 63/96/145 18/142/145 56/97/145
f 16/98/146 58/101/146 100/99/146
f 58/101/147 17/115/147 59/102/147
f 100/99/148 59/102/148 19/103/148
f 18/105/149 61/182/149 101/106/149
f 101/108/150 61/183/150 17/109/150
f 31/89/56 84/174/56 101/30/56
f 56/113/151 18/105/151 62/107/151
f 62/32/152 33/31/152 85/110/152
f 17/115/153 77/117/153 103/116/153
f 77/117/154 22/131/154 72/118/154
f 103/116/155 72/118/155 21/119/155
f 59/102/156 103/116/156 76/120/156
f 65/121/157 19/184/157 67/122/157
f 69/124/158 19/184/158 65/121/158
f 66/126/159 20/156/159 70/127/159
f 21/119/160 72/118/160 109/129/160
f 22/131/161 73/185/161 109/132/161
f 109/133/162 73/186/162 23/134/162
f 109/136/163 74/135/163 24/137/163
f 79/139/164 110/140/164 63/96/164
f 24/137/165 74/135/165 110/140/165
f 74/135/166 23/134/166 78/141/166
f 110/140/167 78/141/167 18/142/167
f 19/103/168 76/120/168 111/143/168
f 76/120/169 21/119/169 75/145/169
f 75/147/170 24/137/170 79/139/170
f 111/149/171 79/139/171 20/93/171
f 78/141/172 112/152/172 61/151/172
f 23/134/173 73/187/173 112/152/173
f 112/153/174 73/188/174 22/131/174
f 61/154/175 112/153/175 77/117/175
f 66/126/176 104/189/176 67/155/176
f 68/157/177 89/190/177 37/59/177
f 27/15/178 1/14/178 56/113/178
f 99/94/179 56/97/179 1/158/179
f 40/47/180 89/190/180 68/157/180
f 8/73/181 68/162/181 82/17/181
f 42/161/182 82/17/182 68/162/182
f 41/159/183 10/191/183 70/95/183
f 36/164/184 106/128/184 70/127/184
f 58/91/185 16/165/185 26/4/185
f 16/165/186 57/168/186 96/166/186
f 28/167/187 96/166/187 46/61/187
f 46/61/188 96/166/188 57/168/188
f 57/100/189 100/99/189 69/104/189
f 35/63/190 9/62/190 69/124/190
f 89/192/191 40/193/191 37/194/191
f 40/193/192 87/195/192 107/170/192
f 87/195/193 39/196/193 108/171/193
f 39/196/194 88/197/194 64/198/194
f 108/171/195 39/196/195 64/198/195
f 108/171/196 35/199/196 65/200/196
f 35/199/197 105/201/197 65/200/197
f 108/171/198 65/200/198 104/172/198
f 104/172/199 66/202/199 107/170/199
f 66/202/200 106/203/200 36/204/200
f 107/170/201 66/202/201 36/204/201
f 107/170/202 37/194/202 40/193/202
f 87/195/203 108/171/203 107/170/203
f 2/173/204 26/4/204 96/166/204
l 71 98
l 38 64
l 38 108
