# Blender v2.82 (sub 7) OBJ File: 'coraux.blend'
# www.blender.org
mtllib rock_coraux.mtl
v 7.272425 2.295686 -1.570847
v 7.331089 0.794052 -1.491511
v 6.917480 3.322782 0.717762
v 6.018210 0.717528 1.398980
v 5.583955 2.669040 -1.095342
v 5.272425 0.295686 -1.570847
v 5.527457 2.003304 -0.100536
v 5.272425 0.295686 0.429153
v 9.323982 1.851921 -0.777490
v 9.323649 1.084791 -1.151507
v 9.235794 1.553342 0.113645
v 9.247458 1.001669 -0.315857
v 4.617251 0.848444 -1.246245
v 4.910668 1.039038 -0.235603
v 4.361818 1.752902 0.015248
v 4.603294 1.834917 -0.693158
v 6.696691 0.721092 -1.274550
v 6.219150 2.439203 0.482111
v 5.374558 0.487828 1.102132
v 6.272425 2.295686 -1.570847
v 8.361992 0.519853 0.204986
v 8.226546 2.618568 0.008163
v 8.470495 1.697371 -1.528080
v 8.361992 0.519853 -1.346680
v 7.579142 3.107232 0.246065
v 7.612023 0.770644 -1.377512
v 7.695691 1.049372 0.589214
v 7.935325 2.347607 -1.255328
v 8.848261 0.783999 0.102781
v 8.784306 2.215480 -1.244005
v 8.472840 2.034252 0.016042
v 8.887421 0.501427 -1.398342
vt 0.338822 0.266823
vt 0.492955 0.426796
vt 0.277303 0.348348
vt 0.667170 0.251856
vt 0.461637 0.319357
vt 0.616853 0.191160
vt 0.467072 0.069935
vt 0.471410 0.195935
vt 0.966546 0.359461
vt 0.667419 0.288347
vt 0.700339 0.212094
vt 0.344118 0.846226
vt 0.261981 0.796471
vt 0.306034 0.705453
vt 0.093787 0.326980
vt 0.236499 0.452081
vt 0.076959 0.400251
vt 0.177748 0.733411
vt 0.197208 0.839829
vt 0.111361 0.801552
vt 0.173376 0.644269
vt 0.084551 0.752511
vt 0.001669 0.730586
vt 0.999876 0.607467
vt 0.879278 0.676285
vt 0.830723 0.627409
vt 0.851205 0.101405
vt 0.888462 0.000124
vt 0.970299 0.096029
vt 0.590104 0.317516
vt 0.630759 0.428556
vt 0.999876 0.193828
vt 0.551603 0.220693
vt 0.074153 0.203927
vt 0.094030 0.371706
vt 0.776937 0.193422
vt 0.653389 0.278339
vt 0.608369 0.208543
vt 0.499531 0.554886
vt 0.229883 0.533855
vt 0.332586 0.639941
vt 0.141147 0.577014
vt 0.980425 0.462281
vt 0.813403 0.567119
vt 0.759376 0.478148
vt 0.067815 0.455637
vt 0.017177 0.527872
vt 0.400771 0.823363
vt 0.412959 0.590763
vt 0.456298 0.819614
vt 0.061867 0.469397
vt 0.069488 0.436369
vt 0.991688 0.430311
vt 0.985551 0.550348
vt 0.000124 0.561095
vt 0.026708 0.508550
vt 0.322814 0.875191
vt 0.392467 0.000124
vt 0.280318 0.872228
vt 0.972449 0.688694
vt 0.804911 0.008057
vt 0.310001 0.874309
vt 0.667170 0.823303
vt 0.267271 0.846040
vn 0.4488 0.8922 -0.0507
vn -0.9794 0.1767 0.0982
vn -0.6094 0.3812 -0.6953
vn 0.3039 -0.9497 0.0759
vn -0.1032 0.0380 0.9939
vn -0.3165 -0.0624 -0.9465
vn 0.9953 -0.0426 0.0865
vn 0.3790 0.1056 -0.9193
vn 0.5987 -0.7841 0.1632
vn 0.4016 0.8873 0.2269
vn -0.9339 -0.1848 0.3060
vn -0.6424 0.3129 0.6995
vn -0.5228 -0.7971 0.3021
vn -0.2057 0.9777 0.0431
vn 0.2359 -0.1179 -0.9646
vn 0.2862 -0.9582 0.0000
vn -0.5015 0.4515 0.7380
vn -0.6700 0.6330 -0.3880
vn 0.6709 0.6781 -0.3001
vn -0.5656 -0.8128 0.1393
vn -0.0100 -0.1514 -0.9884
vn 0.4513 0.1716 0.8757
vn 0.6075 0.1640 0.7772
vn 0.3733 -0.0344 -0.9271
vn 0.2299 -0.9700 0.0787
vn 0.1309 0.8968 -0.4227
vn -0.8181 0.5621 -0.1214
vn 0.4773 -0.8787 0.0000
vn -0.1018 -0.1423 -0.9846
vn 0.2182 0.1051 0.9702
vn -0.6981 0.6127 0.3704
vn -0.7227 0.4729 0.5041
vn -0.2748 0.2234 -0.9352
vn 0.1244 -0.9918 0.0302
vn 0.7592 -0.3898 0.5213
vn 0.0000 -0.1849 -0.9828
vn 0.9955 -0.0441 0.0837
vn 0.7313 0.2987 -0.6132
vn 0.7982 -0.6023 0.0129
vn 0.4752 0.8191 0.3215
vn -0.8007 -0.4994 -0.3308
vn 0.1445 -0.2273 0.9630
vn -0.8992 -0.4376 0.0000
vn -0.4456 0.7555 0.4803
vn -0.4644 0.2322 -0.8547
vn 0.4690 -0.8655 0.1759
vn -0.7018 0.3969 0.5915
vn 0.0000 0.9976 -0.0697
vn 0.5061 0.8120 -0.2908
vn -0.3171 -0.9484 0.0000
vn -0.3127 0.1369 -0.9399
vn 0.5623 0.1131 0.8192
vn 0.4181 0.0920 0.9037
vn 0.4309 -0.0184 -0.9022
vn -0.1404 -0.9795 0.1448
vn 0.0060 0.9127 -0.4087
vn 0.9185 0.3860 -0.0856
vn -0.0163 -0.9827 0.1846
vn 0.5636 0.1077 -0.8190
vn 0.1458 0.1120 0.9830
usemtl Material
s off
f 5/1/1 18/2/1 20/3/1
f 19/4/2 7/5/2 8/6/2
f 5/1/3 13/7/3 16/8/3
f 17/9/4 4/10/4 19/11/4
f 29/12/5 11/13/5 31/14/5
f 17/15/6 1/16/6 2/17/6
f 9/18/7 12/19/7 10/20/7
f 30/21/8 10/22/8 32/23/8
f 32/24/9 12/25/9 29/26/9
f 31/14/10 9/18/10 30/21/10
f 14/27/11 16/28/11 13/29/11
f 7/5/12 14/30/12 8/31/12
f 6/32/13 14/27/13 13/29/13
f 7/5/14 16/8/14 15/33/14
f 6/34/15 20/3/15 17/35/15
f 17/9/16 8/36/16 6/32/16
f 4/37/17 18/2/17 19/38/17
f 1/16/18 18/2/18 3/39/18
f 28/40/19 22/41/19 23/42/19
f 26/43/20 21/44/20 27/45/20
f 26/46/21 23/42/21 24/47/21
f 27/48/22 22/41/22 25/49/22
f 3/39/23 27/50/23 25/49/23
f 1/16/24 26/51/24 2/52/24
f 2/53/25 27/45/25 4/10/25
f 1/16/26 25/49/26 28/40/26
f 23/42/27 31/14/27 30/21/27
f 24/54/28 29/26/28 21/44/28
f 23/42/29 32/55/29 24/56/29
f 21/57/30 31/14/30 22/41/30
f 5/1/31 7/5/31 18/2/31
f 19/4/32 18/2/32 7/5/32
f 5/1/33 6/58/33 13/7/33
f 17/9/34 2/53/34 4/10/34
f 29/12/35 12/59/35 11/13/35
f 17/15/36 20/3/36 1/16/36
f 9/18/37 11/13/37 12/19/37
f 30/21/38 9/18/38 10/22/38
f 32/24/39 10/60/39 12/25/39
f 31/14/40 11/13/40 9/18/40
f 14/27/41 15/61/41 16/28/41
f 7/5/42 15/33/42 14/30/42
f 6/32/43 8/36/43 14/27/43
f 7/5/44 5/1/44 16/8/44
f 6/34/45 5/1/45 20/3/45
f 17/9/46 19/11/46 8/36/46
f 4/37/47 3/39/47 18/2/47
f 1/16/48 20/3/48 18/2/48
f 28/40/49 25/49/49 22/41/49
f 26/43/50 24/54/50 21/44/50
f 26/46/51 28/40/51 23/42/51
f 27/48/52 21/62/52 22/41/52
f 3/39/53 4/63/53 27/50/53
f 1/16/54 28/40/54 26/51/54
f 2/53/55 26/43/55 27/45/55
f 1/16/56 3/39/56 25/49/56
f 23/42/57 22/41/57 31/14/57
f 24/54/58 32/24/58 29/26/58
f 23/42/59 30/21/59 32/55/59
f 21/57/60 29/64/60 31/14/60
