# Blender v2.82 (sub 7) OBJ File: 'coraux.blend'
# www.blender.org
mtllib roses2_coraux.mtl
v -0.103811 5.202083 -3.261636
v 0.854637 3.899347 -2.715461
v 2.885978 2.108597 -1.767207
v 3.917536 1.680432 -1.289967
v 0.713680 6.348402 -3.282774
v 2.266964 5.879770 -2.751981
v -0.317861 6.231320 -3.455956
v 4.638211 4.565650 -1.812515
v 5.351107 3.690644 -1.327036
v 5.368085 2.168060 -0.993882
vt 0.678678 -0.005951
vt 0.769363 0.993933
vt 0.602259 0.684560
vt 0.877700 0.650815
vt 0.877700 0.261362
vt 0.678661 0.897505
vt 0.536195 0.303200
vt 0.549892 0.139155
vt 0.839037 0.877866
vt 0.829406 0.104907
vn -0.3029 0.1467 0.9417
vn -0.2339 0.2496 0.9397
vn -0.3986 0.0894 0.9128
vn -0.2971 0.1614 0.9411
vn -0.2895 0.3115 0.9051
vn -0.1949 0.3788 0.9047
vn -0.2205 0.2610 0.9398
vn -0.3785 0.1938 0.9051
usemtl Material.001
s off
f 10/1/1 7/2/1 2/3/1
f 6/4/2 10/1/2 8/5/2
f 7/2/3 1/6/3 2/3/3
f 2/3/4 3/7/4 10/1/4
f 3/7/5 4/8/5 10/1/5
f 6/4/6 5/9/6 7/2/6
f 7/2/7 10/1/7 6/4/7
f 10/1/8 9/10/8 8/5/8
